<?xml version="1.0" encoding="UTF-8" standalone="no"?><svg xmlns="http://www.w3.org/2000/svg" xmlns:xlink="http://www.w3.org/1999/xlink" clip-rule="evenodd" stroke-miterlimit="10" viewBox="0 0 1024 768"><desc>SVG generated by Keynote</desc><defs></defs><g transform="matrix(1.00, 0.00, -0.00, -1.00, 0.0, 768.0)"><path d="M 0.0 768.0 L 1024.0 768.0 L 1024.0 0.0 L 0.0 0.0 Z M 0.0 768.0 " fill="#F1F2EC"></path><g><clipPath id="clip0x6000014bc6e0"><path d="M 359.7 336.3 L 674.3 336.3 L 674.3 503.6 L 359.7 503.6 Z M 359.7 336.3 "></path></clipPath><g clip-path="url(#clip0x6000014bc6e0)"><path d="M 0.8 46.0 C 8.2 32.6 21.2 22.5 36.9 18.0 C 50.6 14.0 65.4 14.5 78.7 19.5 C 87.4 7.7 102.0 0.4 117.7 0.0 C 130.4 -0.3 142.8 4.1 152.0 12.2 C 167.4 2.6 187.0 0.6 204.3 6.9 C 216.9 11.4 227.3 20.1 233.4 31.2 C 258.2 29.2 280.7 44.4 285.7 66.5 C 287.2 73.4 286.8 80.4 284.5 87.1 C 307.8 91.1 318.4 115.8 304.3 133.0 C 298.1 140.6 287.8 144.4 277.5 143.0 C 265.7 151.1 252.1 156.7 237.5 159.8 C 219.2 163.7 200.1 163.4 182.2 158.9 C 166.6 163.4 150.1 164.5 133.9 162.0 C 118.2 159.6 103.2 153.8 90.3 145.2 C 76.7 148.6 62.1 144.5 53.1 134.6 C 45.1 125.8 42.9 113.7 47.3 102.9 C 33.1 101.4 20.1 94.8 11.3 84.5 C 2.0 73.6 -1.8 59.6 0.8 46.0 Z M 0.8 46.0 " fill="none" stroke="#85878C" stroke-width="2.00" transform="matrix(1.00, 0.00, 0.00, -1.00, 361.7, 501.6)"></path></g></g><g><clipPath id="clip0x6000014bc680"><path d="M 437.3 384.6 L 605.5 384.6 L 605.5 463.0 L 437.3 463.0 Z M 437.3 384.6 "></path></clipPath><g clip-path="url(#clip0x6000014bc680)"><text xml:space="preserve" font-family="YanoneKaffeesatz-Regular,Yanone Kaffeesatz" font-size="35.0" fill="#52575F" transform="matrix(1.00, 0.00, -0.00, -1.00, 478.1, 411.0)">I</text><text xml:space="preserve" font-family="YanoneKaffeesatz-Regular,Yanone Kaffeesatz" font-size="35.0" fill="#52575F" transform="matrix(1.00, 0.00, -0.00, -1.00, 484.0, 411.0)">n</text><text xml:space="preserve" font-family="YanoneKaffeesatz-Regular,Yanone Kaffeesatz" font-size="35.0" fill="#52575F" transform="matrix(1.00, 0.00, -0.00, -1.00, 497.4, 411.0)">t</text><text xml:space="preserve" font-family="YanoneKaffeesatz-Regular,Yanone Kaffeesatz" font-size="35.0" fill="#52575F" transform="matrix(1.00, 0.00, -0.00, -1.00, 506.8, 411.0)">e</text><text xml:space="preserve" font-family="YanoneKaffeesatz-Regular,Yanone Kaffeesatz" font-size="35.0" fill="#52575F" transform="matrix(1.00, 0.00, -0.00, -1.00, 519.4, 411.0)">r</text><text xml:space="preserve" font-family="YanoneKaffeesatz-Regular,Yanone Kaffeesatz" font-size="35.0" fill="#52575F" transform="matrix(1.00, 0.00, -0.00, -1.00, 528.6, 411.0)">n</text><text xml:space="preserve" font-family="YanoneKaffeesatz-Regular,Yanone Kaffeesatz" font-size="35.0" fill="#52575F" transform="matrix(1.00, 0.00, -0.00, -1.00, 542.0, 411.0)">e</text><text xml:space="preserve" font-family="YanoneKaffeesatz-Regular,Yanone Kaffeesatz" font-size="35.0" fill="#52575F" transform="matrix(1.00, 0.00, -0.00, -1.00, 554.5, 411.0)">t</text></g></g><image xlink:href="../../814B4016-C1A1-4195-AC50-8DDB93EEA766/assets/92FB21D3C51DDADA2BD7AFEEB2FD92D1.png" width="73.00" height="52.00" transform="matrix(1.00, 0.00, -0.00, -1.00, 358.5, 236.0)"></image><image xlink:href="../../814B4016-C1A1-4195-AC50-8DDB93EEA766/assets/82F5D64A9699A0013DBD8D620E5588B8.png" width="47.00" height="69.00" transform="matrix(1.00, 0.00, -0.00, -1.00, 260.6, 303.1)"></image><g><clipPath id="clip0x6080014a1d40"><path d="M 791.5 518.9 L 853.9 518.9 L 853.9 609.5 L 791.5 609.5 Z M 791.5 518.9 "></path></clipPath><g clip-path="url(#clip0x6080014a1d40)"><image xlink:href="../../5013516D-8380-440E-850A-46B458BE7DCC/assets/78CD03A8DA8ED963CF55D6AF4AE978DC.png" width="42.00" height="61.00" transform="matrix(1.49, 0.00, -0.00, -1.49, 791.5, 609.5)"></image></g></g><g><clipPath id="clip0x6080014a1f80"><path d="M 847.4 533.1 L 960.3 533.1 L 960.3 594.3 L 847.4 594.3 Z M 847.4 533.1 "></path></clipPath><g clip-path="url(#clip0x6080014a1f80)"><text xml:space="preserve" font-family="YanoneKaffeesatz-Regular,Yanone Kaffeesatz" font-size="35.0" fill="#52575F" transform="matrix(1.00, 0.00, -0.00, -1.00, 857.5, 551.2)">P</text><text xml:space="preserve" font-family="YanoneKaffeesatz-Regular,Yanone Kaffeesatz" font-size="35.0" fill="#52575F" transform="matrix(1.00, 0.00, -0.00, -1.00, 870.1, 551.2)">H</text><text xml:space="preserve" font-family="YanoneKaffeesatz-Regular,Yanone Kaffeesatz" font-size="35.0" fill="#52575F" transform="matrix(1.00, 0.00, -0.00, -1.00, 884.4, 551.2)">P</text></g></g><g><clipPath id="clip0x6080014a2460"><path d="M 791.5 382.9 L 853.9 382.9 L 853.9 473.5 L 791.5 473.5 Z M 791.5 382.9 "></path></clipPath><g clip-path="url(#clip0x6080014a2460)"><image xlink:href="../../5013516D-8380-440E-850A-46B458BE7DCC/assets/78CD03A8DA8ED963CF55D6AF4AE978DC.png" width="42.00" height="61.00" transform="matrix(1.49, 0.00, -0.00, -1.49, 791.5, 473.5)"></image></g></g><g><clipPath id="clip0x6080014a24c0"><path d="M 847.4 397.1 L 960.3 397.1 L 960.3 458.3 L 847.4 458.3 Z M 847.4 397.1 "></path></clipPath><g clip-path="url(#clip0x6080014a24c0)"><text xml:space="preserve" font-family="YanoneKaffeesatz-Regular,Yanone Kaffeesatz" font-size="35.0" fill="#52575F" transform="matrix(1.00, 0.00, -0.00, -1.00, 857.5, 415.2)">J</text><text xml:space="preserve" font-family="YanoneKaffeesatz-Regular,Yanone Kaffeesatz" font-size="35.0" fill="#52575F" transform="matrix(1.00, 0.00, -0.00, -1.00, 868.2, 415.2)">a</text><text xml:space="preserve" font-family="YanoneKaffeesatz-Regular,Yanone Kaffeesatz" font-size="35.0" fill="#52575F" transform="matrix(1.00, 0.00, -0.00, -1.00, 880.6, 415.2)">v</text><text xml:space="preserve" font-family="YanoneKaffeesatz-Regular,Yanone Kaffeesatz" font-size="35.0" fill="#52575F" transform="matrix(1.00, 0.00, -0.00, -1.00, 892.3, 415.2)">a</text></g></g><g><clipPath id="clip0x6080014a2a00"><path d="M 791.5 246.9 L 853.9 246.9 L 853.9 337.5 L 791.5 337.5 Z M 791.5 246.9 "></path></clipPath><g clip-path="url(#clip0x6080014a2a00)"><image xlink:href="../../5013516D-8380-440E-850A-46B458BE7DCC/assets/78CD03A8DA8ED963CF55D6AF4AE978DC.png" width="42.00" height="61.00" transform="matrix(1.49, 0.00, -0.00, -1.49, 791.5, 337.5)"></image></g></g><g><clipPath id="clip0x6080014a2a60"><path d="M 847.4 261.1 L 960.3 261.1 L 960.3 322.3 L 847.4 322.3 Z M 847.4 261.1 "></path></clipPath><g clip-path="url(#clip0x6080014a2a60)"><text xml:space="preserve" font-family="YanoneKaffeesatz-Regular,Yanone Kaffeesatz" font-size="35.0" fill="#52575F" transform="matrix(1.00, 0.00, -0.00, -1.00, 857.5, 279.2)">R</text><text xml:space="preserve" font-family="YanoneKaffeesatz-Regular,Yanone Kaffeesatz" font-size="35.0" fill="#52575F" transform="matrix(1.00, 0.00, -0.00, -1.00, 870.6, 279.2)">u</text><text xml:space="preserve" font-family="YanoneKaffeesatz-Regular,Yanone Kaffeesatz" font-size="35.0" fill="#52575F" transform="matrix(1.00, 0.00, -0.00, -1.00, 884.2, 279.2)">b</text><text xml:space="preserve" font-family="YanoneKaffeesatz-Regular,Yanone Kaffeesatz" font-size="35.0" fill="#52575F" transform="matrix(1.00, 0.00, -0.00, -1.00, 897.6, 279.2)">y</text></g></g><g><clipPath id="clip0x6080014a2fa0"><path d="M 238.5 600.6 L 339.2 600.6 L 339.2 677.8 L 238.5 677.8 Z M 238.5 600.6 "></path></clipPath><g clip-path="url(#clip0x6080014a2fa0)"><image xlink:href="../../5013516D-8380-440E-850A-46B458BE7DCC/assets/BF841888E6BEAB29A872D4C7ED453C85.png" width="73.00" height="56.00" transform="matrix(1.38, 0.00, -0.00, -1.38, 238.5, 677.8)"></image></g></g><g><clipPath id="clip0x6000014bce00"><path d="M 198.5 626.7 L 250.5 626.7 L 250.5 678.7 L 198.5 678.7 Z M 198.5 626.7 "></path></clipPath><g clip-path="url(#clip0x6000014bce00)"><image xlink:href="../../814B4016-C1A1-4195-AC50-8DDB93EEA766/assets/F926B92D768B9F99425BDEF09D040D53.png" width="128.00" height="128.00" transform="matrix(0.41, 0.00, -0.00, -0.41, 198.5, 678.7)"></image></g></g><g><clipPath id="clip0x6080014a3000"><path d="M 151.0 505.5 L 203.0 505.5 L 203.0 557.5 L 151.0 557.5 Z M 151.0 505.5 "></path></clipPath><g clip-path="url(#clip0x6080014a3000)"><image xlink:href="../../814B4016-C1A1-4195-AC50-8DDB93EEA766/assets/FF0ACCC2088F3EB6DC06F0414AED8507.png" width="128.00" height="128.00" transform="matrix(0.41, 0.00, -0.00, -0.41, 151.0, 557.5)"></image></g></g><g><clipPath id="clip0x6080014a3240"><path d="M 192.5 476.6 L 293.2 476.6 L 293.2 553.8 L 192.5 553.8 Z M 192.5 476.6 "></path></clipPath><g clip-path="url(#clip0x6080014a3240)"><image xlink:href="../../5013516D-8380-440E-850A-46B458BE7DCC/assets/BF841888E6BEAB29A872D4C7ED453C85.png" width="73.00" height="56.00" transform="matrix(1.38, 0.00, -0.00, -1.38, 192.5, 553.8)"></image></g></g><g><clipPath id="clip0x6080014a3480"><path d="M 112.8 378.3 L 164.8 378.3 L 164.8 430.3 L 112.8 430.3 Z M 112.8 378.3 "></path></clipPath><g clip-path="url(#clip0x6080014a3480)"><image xlink:href="../../814B4016-C1A1-4195-AC50-8DDB93EEA766/assets/33DCCBA1D87B86170BB662CDB5F31CC7.png" width="128.00" height="128.00" transform="matrix(0.41, 0.00, -0.00, -0.41, 112.8, 430.3)"></image></g></g><g><clipPath id="clip0x6080014a36c0"><path d="M 151.5 352.6 L 252.2 352.6 L 252.2 429.8 L 151.5 429.8 Z M 151.5 352.6 "></path></clipPath><g clip-path="url(#clip0x6080014a36c0)"><image xlink:href="../../5013516D-8380-440E-850A-46B458BE7DCC/assets/BF841888E6BEAB29A872D4C7ED453C85.png" width="73.00" height="56.00" transform="matrix(1.38, 0.00, -0.00, -1.38, 151.5, 429.8)"></image></g></g><path d="M 8.6 0.0 L 9.6 0.0 L 115.1 0.0 L 116.1 0.0 " fill="none" stroke="#7A7A7A" stroke-width="2.00" transform="matrix(-0.49, 0.87, 0.87, 0.49, 387.8, 487.1)"></path><path d="M 335.8 589.9 L 326.9 595.9 L 327.4 585.2 Z M 335.8 589.9 " fill="#7A7A7A"></path><path d="M 379.0 493.1 L 387.8 487.1 L 387.3 497.8 Z M 379.0 493.1 " fill="#7A7A7A"></path><path d="M 8.6 0.0 L 9.6 0.0 L 53.0 0.0 L 54.0 0.0 " fill="none" stroke="#7A7A7A" stroke-width="2.00" transform="matrix(-0.91, 0.41, 0.41, 0.91, 346.1, 456.5)"></path><path d="M 299.6 482.4 L 288.9 481.9 L 295.7 473.6 Z M 299.6 482.4 " fill="#7A7A7A"></path><path d="M 335.3 456.0 L 346.1 456.5 L 339.3 464.8 Z M 335.3 456.0 " fill="#7A7A7A"></path><path d="M 8.6 0.0 L 9.6 0.0 L 102.6 0.0 L 103.6 0.0 " fill="none" stroke="#7A7A7A" stroke-width="2.00" transform="matrix(-0.98, -0.20, -0.20, 0.98, 361.9, 417.0)"></path><path d="M 260.4 401.7 L 251.9 395.1 L 262.3 392.3 Z M 260.4 401.7 " fill="#7A7A7A"></path><path d="M 353.4 410.5 L 361.9 417.0 L 351.6 419.9 Z M 353.4 410.5 " fill="#7A7A7A"></path><path d="M 8.6 0.0 L 9.6 0.0 L 97.9 0.0 L 98.9 0.0 " fill="none" stroke="#7A7A7A" stroke-width="2.00" transform="matrix(-0.77, -0.64, -0.64, 0.77, 388.6, 366.1)"></path><path d="M 310.4 307.0 L 306.2 297.1 L 316.6 299.6 Z M 310.4 307.0 " fill="#7A7A7A"></path><path d="M 384.3 356.3 L 388.6 366.1 L 378.1 363.7 Z M 384.3 356.3 " fill="#7A7A7A"></path><path d="M 8.6 0.0 L 9.6 0.0 L 86.2 0.0 L 87.2 0.0 " fill="none" stroke="#7A7A7A" stroke-width="2.00" transform="matrix(0.32, 0.95, 0.95, -0.32, 409.8, 251.3)"></path><path d="M 442.3 331.3 L 440.9 341.9 L 433.3 334.4 Z M 442.3 331.3 " fill="#7A7A7A"></path><path d="M 408.4 261.9 L 409.8 251.3 L 417.5 258.8 Z M 408.4 261.9 " fill="#7A7A7A"></path><path d="M 8.6 0.0 L 9.6 0.0 L 170.6 0.0 L 171.6 0.0 " fill="none" stroke="#7A7A7A" stroke-width="2.00" transform="matrix(-0.90, -0.43, -0.43, 0.90, 782.8, 561.0)"></path><path d="M 626.8 491.9 L 620.2 483.4 L 630.9 483.2 Z M 626.8 491.9 " fill="#7A7A7A"></path><path d="M 776.2 552.5 L 782.8 561.0 L 772.1 561.2 Z M 776.2 552.5 " fill="#7A7A7A"></path><path d="M 8.9 -0.1 L 9.6 -0.1 L 110.4 -0.1 L 110.9 -0.1 " fill="none" stroke="#7A7A7A" stroke-width="2.00" transform="matrix(-1.00, 0.00, 0.00, 1.00, 791.9, 419.1)"></path><path d="M 682.0 423.8 L 672.4 419.0 L 682.0 414.2 Z M 682.0 423.8 " fill="#7A7A7A"></path><path d="M 782.0 414.2 L 791.6 419.0 L 782.0 423.8 Z M 782.0 414.2 " fill="#7A7A7A"></path><path d="M 8.6 0.0 L 9.6 0.0 L 117.6 0.0 L 118.6 0.0 " fill="none" stroke="#7A7A7A" stroke-width="2.00" transform="matrix(-0.84, 0.54, 0.54, 0.84, 777.8, 286.0)"></path><path d="M 681.6 353.8 L 670.9 355.0 L 676.4 345.8 Z M 681.6 353.8 " fill="#7A7A7A"></path><path d="M 767.2 287.2 L 777.8 286.0 L 772.4 295.2 Z M 767.2 287.2 " fill="#7A7A7A"></path></g></svg>