<?xml version="1.0" encoding="UTF-8" standalone="no"?><svg xmlns="http://www.w3.org/2000/svg" xmlns:xlink="http://www.w3.org/1999/xlink" clip-rule="evenodd" stroke-miterlimit="10" viewBox="0 0 1024 768"><desc>SVG generated by Keynote</desc><defs></defs><g transform="matrix(1.00, 0.00, -0.00, -1.00, 0.0, 768.0)"><path d="M 0.0 768.0 L 1024.0 768.0 L 1024.0 0.0 L 0.0 0.0 Z M 0.0 768.0 " fill="#F1F2EC"></path><text xml:space="preserve" font-family="YanoneKaffeesatz-Regular,Yanone Kaffeesatz" font-size="144.0" fill="#FC4438" transform="matrix(1.00, 0.00, -0.00, -1.00, 104.0, 368.0)">C</text><text xml:space="preserve" font-family="YanoneKaffeesatz-Regular,Yanone Kaffeesatz" font-size="144.0" fill="#FC4438" transform="matrix(1.00, 0.00, -0.00, -1.00, 150.7, 368.0)">o</text><text xml:space="preserve" font-family="YanoneKaffeesatz-Regular,Yanone Kaffeesatz" font-size="144.0" fill="#FC4438" transform="matrix(1.00, 0.00, -0.00, -1.00, 203.6, 368.0)">n</text><text xml:space="preserve" font-family="YanoneKaffeesatz-Regular,Yanone Kaffeesatz" font-size="144.0" fill="#FC4438" transform="matrix(1.00, 0.00, -0.00, -1.00, 258.7, 368.0)">t</text><text xml:space="preserve" font-family="YanoneKaffeesatz-Regular,Yanone Kaffeesatz" font-size="144.0" fill="#FC4438" transform="matrix(1.00, 0.00, -0.00, -1.00, 300.6, 368.0)">r</text><text xml:space="preserve" font-family="YanoneKaffeesatz-Regular,Yanone Kaffeesatz" font-size="144.0" fill="#FC4438" transform="matrix(1.00, 0.00, -0.00, -1.00, 335.6, 368.0)">o</text><text xml:space="preserve" font-family="YanoneKaffeesatz-Regular,Yanone Kaffeesatz" font-size="144.0" fill="#FC4438" transform="matrix(1.00, 0.00, -0.00, -1.00, 388.5, 368.0)">l</text><text xml:space="preserve" font-family="YanoneKaffeesatz-Regular,Yanone Kaffeesatz" font-size="144.0" fill="#FC4438" transform="matrix(1.00, 0.00, -0.00, -1.00, 413.5, 368.0)"> </text><text xml:space="preserve" font-family="YanoneKaffeesatz-Regular,Yanone Kaffeesatz" font-size="144.0" fill="#FC4438" transform="matrix(1.00, 0.00, -0.00, -1.00, 436.1, 368.0)">f</text><text xml:space="preserve" font-family="YanoneKaffeesatz-Regular,Yanone Kaffeesatz" font-size="144.0" fill="#FC4438" transform="matrix(1.00, 0.00, -0.00, -1.00, 472.8, 368.0)">l</text><text xml:space="preserve" font-family="YanoneKaffeesatz-Regular,Yanone Kaffeesatz" font-size="144.0" fill="#FC4438" transform="matrix(1.00, 0.00, -0.00, -1.00, 497.7, 368.0)">o</text><text xml:space="preserve" font-family="YanoneKaffeesatz-Regular,Yanone Kaffeesatz" font-size="144.0" fill="#FC4438" transform="matrix(1.00, 0.00, -0.00, -1.00, 549.2, 368.0)">w</text></g></svg>