<?xml version="1.0" encoding="UTF-8" standalone="no"?><svg xmlns="http://www.w3.org/2000/svg" xmlns:xlink="http://www.w3.org/1999/xlink" clip-rule="evenodd" stroke-miterlimit="10" viewBox="0 0 1024 768"><desc>SVG generated by Keynote</desc><defs></defs><g transform="matrix(1.00, 0.00, -0.00, -1.00, 0.0, 768.0)"><path d="M 0.0 768.0 L 1024.0 768.0 L 1024.0 0.0 L 0.0 0.0 Z M 0.0 768.0 " fill="#F1F2EC"></path><text xml:space="preserve" font-family="YanoneKaffeesatz-Regular,Yanone Kaffeesatz" font-size="64.0" fill="#787878" transform="matrix(1.00, 0.00, -0.00, -1.00, 48.5, 359.7)">v</text><text xml:space="preserve" font-family="YanoneKaffeesatz-Regular,Yanone Kaffeesatz" font-size="64.0" fill="#787878" transform="matrix(1.00, 0.00, -0.00, -1.00, 69.8, 359.7)">a</text><text xml:space="preserve" font-family="YanoneKaffeesatz-Regular,Yanone Kaffeesatz" font-size="64.0" fill="#787878" transform="matrix(1.00, 0.00, -0.00, -1.00, 92.5, 359.7)">r</text><text xml:space="preserve" font-family="YanoneKaffeesatz-Regular,Yanone Kaffeesatz" font-size="64.0" fill="#787878" transform="matrix(1.00, 0.00, -0.00, -1.00, 109.3, 359.7)"> </text><text xml:space="preserve" font-family="YanoneKaffeesatz-Regular,Yanone Kaffeesatz" font-size="64.0" fill="#787878" transform="matrix(1.00, 0.00, -0.00, -1.00, 119.3, 359.7)">c</text><text xml:space="preserve" font-family="YanoneKaffeesatz-Regular,Yanone Kaffeesatz" font-size="64.0" fill="#787878" transform="matrix(1.00, 0.00, -0.00, -1.00, 139.4, 359.7)">a</text><text xml:space="preserve" font-family="YanoneKaffeesatz-Regular,Yanone Kaffeesatz" font-size="64.0" fill="#787878" transform="matrix(1.00, 0.00, -0.00, -1.00, 160.9, 359.7)">t</text><text xml:space="preserve" font-family="YanoneKaffeesatz-Regular,Yanone Kaffeesatz" font-size="64.0" fill="#787878" transform="matrix(1.00, 0.00, -0.00, -1.00, 179.6, 359.7)"> </text><text xml:space="preserve" font-family="YanoneKaffeesatz-Regular,Yanone Kaffeesatz" font-size="64.0" fill="#787878" transform="matrix(1.00, 0.00, -0.00, -1.00, 189.6, 359.7)">=</text><text xml:space="preserve" font-family="YanoneKaffeesatz-Regular,Yanone Kaffeesatz" font-size="64.0" fill="#787878" transform="matrix(1.00, 0.00, -0.00, -1.00, 216.3, 359.7)"> </text><text xml:space="preserve" font-family="YanoneKaffeesatz-Regular,Yanone Kaffeesatz" font-size="64.0" fill="#787878" transform="matrix(1.00, 0.00, -0.00, -1.00, 226.4, 359.7)">{</text><text xml:space="preserve" font-family="YanoneKaffeesatz-Regular,Yanone Kaffeesatz" font-size="64.0" fill="#787878" transform="matrix(1.00, 0.00, -0.00, -1.00, 244.0, 359.7)">c</text><text xml:space="preserve" font-family="YanoneKaffeesatz-Regular,Yanone Kaffeesatz" font-size="64.0" fill="#787878" transform="matrix(1.00, 0.00, -0.00, -1.00, 263.3, 359.7)">o</text><text xml:space="preserve" font-family="YanoneKaffeesatz-Regular,Yanone Kaffeesatz" font-size="64.0" fill="#787878" transform="matrix(1.00, 0.00, -0.00, -1.00, 286.8, 359.7)">l</text><text xml:space="preserve" font-family="YanoneKaffeesatz-Regular,Yanone Kaffeesatz" font-size="64.0" fill="#787878" transform="matrix(1.00, 0.00, -0.00, -1.00, 297.9, 359.7)">o</text><text xml:space="preserve" font-family="YanoneKaffeesatz-Regular,Yanone Kaffeesatz" font-size="64.0" fill="#787878" transform="matrix(1.00, 0.00, -0.00, -1.00, 321.5, 359.7)">r</text><text xml:space="preserve" font-family="YanoneKaffeesatz-Regular,Yanone Kaffeesatz" font-size="64.0" fill="#787878" transform="matrix(1.00, 0.00, -0.00, -1.00, 338.3, 359.7)">:</text><text xml:space="preserve" font-family="YanoneKaffeesatz-Regular,Yanone Kaffeesatz" font-size="64.0" fill="#787878" transform="matrix(1.00, 0.00, -0.00, -1.00, 350.0, 359.7)"> </text><text xml:space="preserve" font-family="YanoneKaffeesatz-Regular,Yanone Kaffeesatz" font-size="64.0" fill="#787878" transform="matrix(1.00, 0.00, -0.00, -1.00, 360.1, 359.7)">"</text><text xml:space="preserve" font-family="YanoneKaffeesatz-Regular,Yanone Kaffeesatz" font-size="64.0" fill="#787878" transform="matrix(1.00, 0.00, -0.00, -1.00, 370.1, 359.7)">g</text><text xml:space="preserve" font-family="YanoneKaffeesatz-Regular,Yanone Kaffeesatz" font-size="64.0" fill="#787878" transform="matrix(1.00, 0.00, -0.00, -1.00, 395.3, 359.7)">r</text><text xml:space="preserve" font-family="YanoneKaffeesatz-Regular,Yanone Kaffeesatz" font-size="64.0" fill="#787878" transform="matrix(1.00, 0.00, -0.00, -1.00, 410.7, 359.7)">e</text><text xml:space="preserve" font-family="YanoneKaffeesatz-Regular,Yanone Kaffeesatz" font-size="64.0" fill="#787878" transform="matrix(1.00, 0.00, -0.00, -1.00, 433.8, 359.7)">y</text><text xml:space="preserve" font-family="YanoneKaffeesatz-Regular,Yanone Kaffeesatz" font-size="64.0" fill="#787878" transform="matrix(1.00, 0.00, -0.00, -1.00, 452.7, 359.7)">"</text><text xml:space="preserve" font-family="YanoneKaffeesatz-Regular,Yanone Kaffeesatz" font-size="64.0" fill="#787878" transform="matrix(1.00, 0.00, -0.00, -1.00, 469.6, 359.7)">,</text><text xml:space="preserve" font-family="YanoneKaffeesatz-Regular,Yanone Kaffeesatz" font-size="64.0" fill="#787878" transform="matrix(1.00, 0.00, -0.00, -1.00, 481.3, 359.7)"> </text><text xml:space="preserve" font-family="YanoneKaffeesatz-Regular,Yanone Kaffeesatz" font-size="64.0" fill="#787878" transform="matrix(1.00, 0.00, -0.00, -1.00, 491.3, 359.7)">n</text><text xml:space="preserve" font-family="YanoneKaffeesatz-Regular,Yanone Kaffeesatz" font-size="64.0" fill="#787878" transform="matrix(1.00, 0.00, -0.00, -1.00, 515.8, 359.7)">a</text><text xml:space="preserve" font-family="YanoneKaffeesatz-Regular,Yanone Kaffeesatz" font-size="64.0" fill="#787878" transform="matrix(1.00, 0.00, -0.00, -1.00, 538.4, 359.7)">m</text><text xml:space="preserve" font-family="YanoneKaffeesatz-Regular,Yanone Kaffeesatz" font-size="64.0" fill="#787878" transform="matrix(1.00, 0.00, -0.00, -1.00, 574.5, 359.7)">e</text><text xml:space="preserve" font-family="YanoneKaffeesatz-Regular,Yanone Kaffeesatz" font-size="64.0" fill="#787878" transform="matrix(1.00, 0.00, -0.00, -1.00, 597.6, 359.7)">:</text><text xml:space="preserve" font-family="YanoneKaffeesatz-Regular,Yanone Kaffeesatz" font-size="64.0" fill="#787878" transform="matrix(1.00, 0.00, -0.00, -1.00, 609.3, 359.7)"> </text><text xml:space="preserve" font-family="YanoneKaffeesatz-Regular,Yanone Kaffeesatz" font-size="64.0" fill="#787878" transform="matrix(1.00, 0.00, -0.00, -1.00, 619.3, 359.7)">"</text><text xml:space="preserve" font-family="YanoneKaffeesatz-Regular,Yanone Kaffeesatz" font-size="64.0" fill="#787878" transform="matrix(1.00, 0.00, -0.00, -1.00, 636.2, 359.7)">S</text><text xml:space="preserve" font-family="YanoneKaffeesatz-Regular,Yanone Kaffeesatz" font-size="64.0" fill="#787878" transform="matrix(1.00, 0.00, -0.00, -1.00, 659.1, 359.7)">p</text><text xml:space="preserve" font-family="YanoneKaffeesatz-Regular,Yanone Kaffeesatz" font-size="64.0" fill="#787878" transform="matrix(1.00, 0.00, -0.00, -1.00, 683.6, 359.7)">o</text><text xml:space="preserve" font-family="YanoneKaffeesatz-Regular,Yanone Kaffeesatz" font-size="64.0" fill="#787878" transform="matrix(1.00, 0.00, -0.00, -1.00, 706.3, 359.7)">t</text><text xml:space="preserve" font-family="YanoneKaffeesatz-Regular,Yanone Kaffeesatz" font-size="64.0" fill="#787878" transform="matrix(1.00, 0.00, -0.00, -1.00, 722.7, 359.7)">"</text><text xml:space="preserve" font-family="YanoneKaffeesatz-Regular,Yanone Kaffeesatz" font-size="64.0" fill="#787878" transform="matrix(1.00, 0.00, -0.00, -1.00, 739.6, 359.7)">}</text><text xml:space="preserve" font-family="YanoneKaffeesatz-Regular,Yanone Kaffeesatz" font-size="64.0" fill="#787878" transform="matrix(1.00, 0.00, -0.00, -1.00, 757.3, 359.7)">;</text></g></svg>