<?xml version="1.0" encoding="UTF-8" standalone="no"?><svg xmlns="http://www.w3.org/2000/svg" xmlns:xlink="http://www.w3.org/1999/xlink" clip-rule="evenodd" stroke-miterlimit="10" viewBox="0 0 1024 768"><desc>SVG generated by Keynote</desc><defs></defs><g transform="matrix(1.00, 0.00, -0.00, -1.00, 0.0, 768.0)"><path d="M 0.0 768.0 L 1024.0 768.0 L 1024.0 0.0 L 0.0 0.0 Z M 0.0 768.0 " fill="#F1F2EC"></path><text xml:space="preserve" font-family="YanoneKaffeesatz-Regular,Yanone Kaffeesatz" font-size="90.0" fill="#FC4438" transform="matrix(1.00, 0.00, -0.00, -1.00, 105.0, 535.6)">N</text><text xml:space="preserve" font-family="YanoneKaffeesatz-Regular,Yanone Kaffeesatz" font-size="90.0" fill="#FC4438" transform="matrix(1.00, 0.00, -0.00, -1.00, 144.9, 535.6)">g</text><text xml:space="preserve" font-family="YanoneKaffeesatz-Regular,Yanone Kaffeesatz" font-size="90.0" fill="#FC4438" transform="matrix(1.00, 0.00, -0.00, -1.00, 180.3, 535.6)">u</text><text xml:space="preserve" font-family="YanoneKaffeesatz-Regular,Yanone Kaffeesatz" font-size="90.0" fill="#FC4438" transform="matrix(1.00, 0.00, -0.00, -1.00, 215.4, 535.6)">y</text><text xml:space="preserve" font-family="YanoneKaffeesatz-Regular,Yanone Kaffeesatz" font-size="90.0" fill="#FC4438" transform="matrix(1.00, 0.00, -0.00, -1.00, 245.4, 535.6)">e</text><text xml:space="preserve" font-family="YanoneKaffeesatz-Regular,Yanone Kaffeesatz" font-size="90.0" fill="#FC4438" transform="matrix(1.00, 0.00, -0.00, -1.00, 277.8, 535.6)">n</text><text xml:space="preserve" font-family="YanoneKaffeesatz-Regular,Yanone Kaffeesatz" font-size="90.0" fill="#FC4438" transform="matrix(1.00, 0.00, -0.00, -1.00, 312.2, 535.6)"> </text><text xml:space="preserve" font-family="YanoneKaffeesatz-Regular,Yanone Kaffeesatz" font-size="90.0" fill="#FC4438" transform="matrix(1.00, 0.00, -0.00, -1.00, 326.4, 535.6)">V</text><text xml:space="preserve" font-family="YanoneKaffeesatz-Regular,Yanone Kaffeesatz" font-size="90.0" fill="#FC4438" transform="matrix(1.00, 0.00, -0.00, -1.00, 360.6, 535.6)">u</text><text xml:space="preserve" font-family="YanoneKaffeesatz-Regular,Yanone Kaffeesatz" font-size="90.0" fill="#FC4438" transform="matrix(1.00, 0.00, -0.00, -1.00, 395.7, 535.6)"> </text><text xml:space="preserve" font-family="YanoneKaffeesatz-Regular,Yanone Kaffeesatz" font-size="90.0" fill="#FC4438" transform="matrix(1.00, 0.00, -0.00, -1.00, 409.9, 535.6)">N</text><text xml:space="preserve" font-family="YanoneKaffeesatz-Regular,Yanone Kaffeesatz" font-size="90.0" fill="#FC4438" transform="matrix(1.00, 0.00, -0.00, -1.00, 449.8, 535.6)">g</text><text xml:space="preserve" font-family="YanoneKaffeesatz-Regular,Yanone Kaffeesatz" font-size="90.0" fill="#FC4438" transform="matrix(1.00, 0.00, -0.00, -1.00, 485.2, 535.6)">u</text><text xml:space="preserve" font-family="YanoneKaffeesatz-Regular,Yanone Kaffeesatz" font-size="90.0" fill="#FC4438" transform="matrix(1.00, 0.00, -0.00, -1.00, 520.3, 535.6)">y</text><text xml:space="preserve" font-family="YanoneKaffeesatz-Regular,Yanone Kaffeesatz" font-size="90.0" fill="#FC4438" transform="matrix(1.00, 0.00, -0.00, -1.00, 550.3, 535.6)">e</text><text xml:space="preserve" font-family="YanoneKaffeesatz-Regular,Yanone Kaffeesatz" font-size="90.0" fill="#FC4438" transform="matrix(1.00, 0.00, -0.00, -1.00, 582.8, 535.6)">n</text><text xml:space="preserve" font-family="YanoneKaffeesatz-Regular,Yanone Kaffeesatz" font-size="64.0" fill="#787878" transform="matrix(1.00, 0.00, -0.00, -1.00, 103.0, 440.2)">R</text><text xml:space="preserve" font-family="YanoneKaffeesatz-Regular,Yanone Kaffeesatz" font-size="64.0" fill="#787878" transform="matrix(1.00, 0.00, -0.00, -1.00, 126.9, 440.2)">u</text><text xml:space="preserve" font-family="YanoneKaffeesatz-Regular,Yanone Kaffeesatz" font-size="64.0" fill="#787878" transform="matrix(1.00, 0.00, -0.00, -1.00, 151.9, 440.2)">b</text><text xml:space="preserve" font-family="YanoneKaffeesatz-Regular,Yanone Kaffeesatz" font-size="64.0" fill="#787878" transform="matrix(1.00, 0.00, -0.00, -1.00, 176.4, 440.2)">y</text><text xml:space="preserve" font-family="YanoneKaffeesatz-Regular,Yanone Kaffeesatz" font-size="64.0" fill="#787878" transform="matrix(1.00, 0.00, -0.00, -1.00, 197.2, 440.2)">/</text><text xml:space="preserve" font-family="YanoneKaffeesatz-Regular,Yanone Kaffeesatz" font-size="64.0" fill="#787878" transform="matrix(1.00, 0.00, -0.00, -1.00, 218.6, 440.2)">R</text><text xml:space="preserve" font-family="YanoneKaffeesatz-Regular,Yanone Kaffeesatz" font-size="64.0" fill="#787878" transform="matrix(1.00, 0.00, -0.00, -1.00, 242.5, 440.2)">a</text><text xml:space="preserve" font-family="YanoneKaffeesatz-Regular,Yanone Kaffeesatz" font-size="64.0" fill="#787878" transform="matrix(1.00, 0.00, -0.00, -1.00, 265.2, 440.2)">i</text><text xml:space="preserve" font-family="YanoneKaffeesatz-Regular,Yanone Kaffeesatz" font-size="64.0" fill="#787878" transform="matrix(1.00, 0.00, -0.00, -1.00, 276.4, 440.2)">l</text><text xml:space="preserve" font-family="YanoneKaffeesatz-Regular,Yanone Kaffeesatz" font-size="64.0" fill="#787878" transform="matrix(1.00, 0.00, -0.00, -1.00, 287.4, 440.2)">s</text><text xml:space="preserve" font-family="YanoneKaffeesatz-Regular,Yanone Kaffeesatz" font-size="64.0" fill="#787878" transform="matrix(1.00, 0.00, -0.00, -1.00, 310.0, 440.2)">/</text><text xml:space="preserve" font-family="YanoneKaffeesatz-Regular,Yanone Kaffeesatz" font-size="64.0" fill="#787878" transform="matrix(1.00, 0.00, -0.00, -1.00, 326.5, 440.2)">J</text><text xml:space="preserve" font-family="YanoneKaffeesatz-Regular,Yanone Kaffeesatz" font-size="64.0" fill="#787878" transform="matrix(1.00, 0.00, -0.00, -1.00, 346.1, 440.2)">a</text><text xml:space="preserve" font-family="YanoneKaffeesatz-Regular,Yanone Kaffeesatz" font-size="64.0" fill="#787878" transform="matrix(1.00, 0.00, -0.00, -1.00, 368.7, 440.2)">v</text><text xml:space="preserve" font-family="YanoneKaffeesatz-Regular,Yanone Kaffeesatz" font-size="64.0" fill="#787878" transform="matrix(1.00, 0.00, -0.00, -1.00, 390.0, 440.2)">a</text><text xml:space="preserve" font-family="YanoneKaffeesatz-Regular,Yanone Kaffeesatz" font-size="64.0" fill="#787878" transform="matrix(1.00, 0.00, -0.00, -1.00, 412.7, 440.2)">s</text><text xml:space="preserve" font-family="YanoneKaffeesatz-Regular,Yanone Kaffeesatz" font-size="64.0" fill="#787878" transform="matrix(1.00, 0.00, -0.00, -1.00, 434.8, 440.2)">c</text><text xml:space="preserve" font-family="YanoneKaffeesatz-Regular,Yanone Kaffeesatz" font-size="64.0" fill="#787878" transform="matrix(1.00, 0.00, -0.00, -1.00, 454.8, 440.2)">r</text><text xml:space="preserve" font-family="YanoneKaffeesatz-Regular,Yanone Kaffeesatz" font-size="64.0" fill="#787878" transform="matrix(1.00, 0.00, -0.00, -1.00, 471.6, 440.2)">i</text><text xml:space="preserve" font-family="YanoneKaffeesatz-Regular,Yanone Kaffeesatz" font-size="64.0" fill="#787878" transform="matrix(1.00, 0.00, -0.00, -1.00, 482.8, 440.2)">p</text><text xml:space="preserve" font-family="YanoneKaffeesatz-Regular,Yanone Kaffeesatz" font-size="64.0" fill="#787878" transform="matrix(1.00, 0.00, -0.00, -1.00, 506.7, 440.2)">t</text><text xml:space="preserve" font-family="YanoneKaffeesatz-Regular,Yanone Kaffeesatz" font-size="64.0" fill="#787878" transform="matrix(1.00, 0.00, -0.00, -1.00, 525.3, 440.2)"> </text><text xml:space="preserve" font-family="YanoneKaffeesatz-Regular,Yanone Kaffeesatz" font-size="64.0" fill="#787878" transform="matrix(1.00, 0.00, -0.00, -1.00, 535.4, 440.2)">d</text><text xml:space="preserve" font-family="YanoneKaffeesatz-Regular,Yanone Kaffeesatz" font-size="64.0" fill="#787878" transform="matrix(1.00, 0.00, -0.00, -1.00, 560.1, 440.2)">e</text><text xml:space="preserve" font-family="YanoneKaffeesatz-Regular,Yanone Kaffeesatz" font-size="64.0" fill="#787878" transform="matrix(1.00, 0.00, -0.00, -1.00, 583.2, 440.2)">v</text><text xml:space="preserve" font-family="YanoneKaffeesatz-Regular,Yanone Kaffeesatz" font-size="64.0" fill="#787878" transform="matrix(1.00, 0.00, -0.00, -1.00, 603.7, 440.2)">e</text><text xml:space="preserve" font-family="YanoneKaffeesatz-Regular,Yanone Kaffeesatz" font-size="64.0" fill="#787878" transform="matrix(1.00, 0.00, -0.00, -1.00, 626.8, 440.2)">l</text><text xml:space="preserve" font-family="YanoneKaffeesatz-Regular,Yanone Kaffeesatz" font-size="64.0" fill="#787878" transform="matrix(1.00, 0.00, -0.00, -1.00, 637.8, 440.2)">o</text><text xml:space="preserve" font-family="YanoneKaffeesatz-Regular,Yanone Kaffeesatz" font-size="64.0" fill="#787878" transform="matrix(1.00, 0.00, -0.00, -1.00, 661.4, 440.2)">p</text><text xml:space="preserve" font-family="YanoneKaffeesatz-Regular,Yanone Kaffeesatz" font-size="64.0" fill="#787878" transform="matrix(1.00, 0.00, -0.00, -1.00, 685.9, 440.2)">e</text><text xml:space="preserve" font-family="YanoneKaffeesatz-Regular,Yanone Kaffeesatz" font-size="64.0" fill="#787878" transform="matrix(1.00, 0.00, -0.00, -1.00, 709.0, 440.2)">r</text><text xml:space="preserve" font-family="YanoneKaffeesatz-Regular,Yanone Kaffeesatz" font-size="64.0" fill="#787878" transform="matrix(1.00, 0.00, -0.00, -1.00, 103.0, 367.2)">F</text><text xml:space="preserve" font-family="YanoneKaffeesatz-Regular,Yanone Kaffeesatz" font-size="64.0" fill="#787878" transform="matrix(1.00, 0.00, -0.00, -1.00, 121.2, 367.2)">o</text><text xml:space="preserve" font-family="YanoneKaffeesatz-Regular,Yanone Kaffeesatz" font-size="64.0" fill="#787878" transform="matrix(1.00, 0.00, -0.00, -1.00, 144.8, 367.2)">r</text><text xml:space="preserve" font-family="YanoneKaffeesatz-Regular,Yanone Kaffeesatz" font-size="64.0" fill="#787878" transform="matrix(1.00, 0.00, -0.00, -1.00, 161.6, 367.2)">m</text><text xml:space="preserve" font-family="YanoneKaffeesatz-Regular,Yanone Kaffeesatz" font-size="64.0" fill="#787878" transform="matrix(1.00, 0.00, -0.00, -1.00, 197.6, 367.2)">e</text><text xml:space="preserve" font-family="YanoneKaffeesatz-Regular,Yanone Kaffeesatz" font-size="64.0" fill="#787878" transform="matrix(1.00, 0.00, -0.00, -1.00, 220.7, 367.2)">r</text><text xml:space="preserve" font-family="YanoneKaffeesatz-Regular,Yanone Kaffeesatz" font-size="64.0" fill="#787878" transform="matrix(1.00, 0.00, -0.00, -1.00, 237.6, 367.2)"> </text><text xml:space="preserve" font-family="YanoneKaffeesatz-Regular,Yanone Kaffeesatz" font-size="64.0" fill="#787878" transform="matrix(1.00, 0.00, -0.00, -1.00, 247.6, 367.2)">C</text><text xml:space="preserve" font-family="YanoneKaffeesatz-Regular,Yanone Kaffeesatz" font-size="64.0" fill="#787878" transform="matrix(1.00, 0.00, -0.00, -1.00, 269.3, 367.2)">+</text><text xml:space="preserve" font-family="YanoneKaffeesatz-Regular,Yanone Kaffeesatz" font-size="64.0" fill="#787878" transform="matrix(1.00, 0.00, -0.00, -1.00, 296.0, 367.2)">+</text><text xml:space="preserve" font-family="YanoneKaffeesatz-Regular,Yanone Kaffeesatz" font-size="64.0" fill="#787878" transform="matrix(1.00, 0.00, -0.00, -1.00, 322.7, 367.2)"> </text><text xml:space="preserve" font-family="YanoneKaffeesatz-Regular,Yanone Kaffeesatz" font-size="64.0" fill="#787878" transform="matrix(1.00, 0.00, -0.00, -1.00, 332.7, 367.2)">d</text><text xml:space="preserve" font-family="YanoneKaffeesatz-Regular,Yanone Kaffeesatz" font-size="64.0" fill="#787878" transform="matrix(1.00, 0.00, -0.00, -1.00, 357.4, 367.2)">e</text><text xml:space="preserve" font-family="YanoneKaffeesatz-Regular,Yanone Kaffeesatz" font-size="64.0" fill="#787878" transform="matrix(1.00, 0.00, -0.00, -1.00, 380.5, 367.2)">v</text><text xml:space="preserve" font-family="YanoneKaffeesatz-Regular,Yanone Kaffeesatz" font-size="64.0" fill="#787878" transform="matrix(1.00, 0.00, -0.00, -1.00, 401.0, 367.2)">e</text><text xml:space="preserve" font-family="YanoneKaffeesatz-Regular,Yanone Kaffeesatz" font-size="64.0" fill="#787878" transform="matrix(1.00, 0.00, -0.00, -1.00, 424.1, 367.2)">l</text><text xml:space="preserve" font-family="YanoneKaffeesatz-Regular,Yanone Kaffeesatz" font-size="64.0" fill="#787878" transform="matrix(1.00, 0.00, -0.00, -1.00, 435.2, 367.2)">o</text><text xml:space="preserve" font-family="YanoneKaffeesatz-Regular,Yanone Kaffeesatz" font-size="64.0" fill="#787878" transform="matrix(1.00, 0.00, -0.00, -1.00, 458.8, 367.2)">p</text><text xml:space="preserve" font-family="YanoneKaffeesatz-Regular,Yanone Kaffeesatz" font-size="64.0" fill="#787878" transform="matrix(1.00, 0.00, -0.00, -1.00, 483.3, 367.2)">e</text><text xml:space="preserve" font-family="YanoneKaffeesatz-Regular,Yanone Kaffeesatz" font-size="64.0" fill="#787878" transform="matrix(1.00, 0.00, -0.00, -1.00, 506.4, 367.2)">r</text><text xml:space="preserve" font-family="YanoneKaffeesatz-Regular,Yanone Kaffeesatz" font-size="64.0" fill="#787878" transform="matrix(1.00, 0.00, -0.00, -1.00, 103.0, 294.2)">M</text><text xml:space="preserve" font-family="YanoneKaffeesatz-Regular,Yanone Kaffeesatz" font-size="64.0" fill="#787878" transform="matrix(1.00, 0.00, -0.00, -1.00, 134.3, 294.2)">e</text><text xml:space="preserve" font-family="YanoneKaffeesatz-Regular,Yanone Kaffeesatz" font-size="64.0" fill="#787878" transform="matrix(1.00, 0.00, -0.00, -1.00, 157.4, 294.2)">d</text><text xml:space="preserve" font-family="YanoneKaffeesatz-Regular,Yanone Kaffeesatz" font-size="64.0" fill="#787878" transform="matrix(1.00, 0.00, -0.00, -1.00, 182.1, 294.2)">i</text><text xml:space="preserve" font-family="YanoneKaffeesatz-Regular,Yanone Kaffeesatz" font-size="64.0" fill="#787878" transform="matrix(1.00, 0.00, -0.00, -1.00, 193.3, 294.2)">t</text><text xml:space="preserve" font-family="YanoneKaffeesatz-Regular,Yanone Kaffeesatz" font-size="64.0" fill="#787878" transform="matrix(1.00, 0.00, -0.00, -1.00, 212.0, 294.2)">a</text><text xml:space="preserve" font-family="YanoneKaffeesatz-Regular,Yanone Kaffeesatz" font-size="64.0" fill="#787878" transform="matrix(1.00, 0.00, -0.00, -1.00, 233.5, 294.2)">t</text><text xml:space="preserve" font-family="YanoneKaffeesatz-Regular,Yanone Kaffeesatz" font-size="64.0" fill="#787878" transform="matrix(1.00, 0.00, -0.00, -1.00, 251.1, 294.2)">o</text><text xml:space="preserve" font-family="YanoneKaffeesatz-Regular,Yanone Kaffeesatz" font-size="64.0" fill="#787878" transform="matrix(1.00, 0.00, -0.00, -1.00, 274.6, 294.2)">r</text><g><clipPath id="clip0x6080012b2600"><path d="M 326.4 357.8 L 744.3 357.8 L 744.3 44.4 L 326.4 44.4 Z M 326.4 357.8 "></path></clipPath><g clip-path="url(#clip0x6080012b2600)"><g><clipPath id="clip0x6080002ba6a0"><path d="M 433.1 152.3 L 637.7 152.3 L 637.7 250.7 L 433.1 250.7 Z M 433.1 152.3 "></path></clipPath><g clip-path="url(#clip0x6080002ba6a0)"><path d="M 536.7 222.7 C 536.4 222.3 536.2 222.0 535.9 221.8 C 535.7 221.6 535.3 221.5 534.9 221.5 C 534.6 221.5 534.2 221.6 533.7 221.8 C 533.3 222.1 532.8 222.4 532.3 222.7 C 531.8 223.0 531.2 223.3 530.5 223.5 C 529.8 223.8 529.0 223.9 528.2 223.9 C 526.7 223.9 525.5 223.6 524.8 222.9 C 524.1 222.2 523.7 221.2 523.7 220.0 C 523.7 219.3 523.9 218.6 524.4 218.1 C 524.8 217.6 525.4 217.2 526.1 216.8 C 526.8 216.5 527.7 216.1 528.6 215.8 C 529.5 215.5 530.5 215.2 531.4 214.8 C 532.4 214.5 533.3 214.0 534.3 213.5 C 535.2 213.0 536.0 212.4 536.7 211.6 C 537.5 210.8 538.0 209.9 538.5 208.8 C 538.9 207.7 539.2 206.3 539.2 204.8 C 539.2 203.0 538.9 201.4 538.3 199.9 C 537.8 198.4 537.0 197.0 535.9 195.9 C 534.9 194.8 533.6 193.9 532.0 193.3 C 530.5 192.6 528.7 192.3 526.7 192.3 C 525.7 192.3 524.6 192.4 523.4 192.6 C 522.3 192.9 521.2 193.2 520.2 193.7 C 519.2 194.1 518.2 194.6 517.3 195.2 C 516.3 195.8 515.5 196.5 514.8 197.2 L 517.2 201.3 C 517.4 201.6 517.6 201.9 518.0 202.1 C 518.3 202.3 518.6 202.4 519.0 202.4 C 519.5 202.4 519.9 202.2 520.4 201.9 C 520.9 201.5 521.5 201.2 522.1 200.8 C 522.7 200.4 523.4 200.0 524.2 199.7 C 525.0 199.4 525.9 199.2 527.0 199.2 C 528.4 199.2 529.6 199.6 530.4 200.3 C 531.2 201.0 531.6 202.1 531.6 203.6 C 531.6 204.5 531.4 205.2 530.9 205.7 C 530.5 206.3 529.9 206.7 529.2 207.1 C 528.5 207.5 527.6 207.8 526.7 208.1 C 525.8 208.3 524.9 208.6 523.9 209.0 C 522.9 209.3 522.0 209.7 521.1 210.2 C 520.1 210.7 519.3 211.3 518.6 212.1 C 517.9 213.0 517.3 213.9 516.8 215.1 C 516.4 216.3 516.2 217.8 516.2 219.6 C 516.2 221.0 516.4 222.4 517.0 223.7 C 517.5 225.1 518.3 226.3 519.3 227.3 C 520.3 228.4 521.5 229.2 523.0 229.8 C 524.5 230.5 526.2 230.8 528.1 230.8 C 529.1 230.8 530.2 230.7 531.2 230.5 C 532.2 230.3 533.1 230.1 534.0 229.7 C 534.9 229.4 535.8 228.9 536.6 228.4 C 537.4 227.9 538.1 227.4 538.7 226.8 Z M 536.7 222.7 " fill="#240F0C"></path><path d="M 543.1 192.7 L 543.1 231.4 L 550.5 231.4 L 550.5 217.2 C 551.4 218.0 552.4 218.6 553.4 219.2 C 554.5 219.7 555.7 219.9 557.1 219.9 C 558.5 219.9 559.7 219.7 560.7 219.2 C 561.8 218.6 562.6 217.9 563.3 217.0 C 564.1 216.1 564.6 215.1 565.0 213.8 C 565.3 212.6 565.5 211.2 565.5 209.7 L 565.5 192.7 L 558.1 192.7 L 558.1 209.7 C 558.1 211.0 557.9 212.1 557.3 212.8 C 556.7 213.5 555.9 213.9 554.9 213.9 C 554.0 213.9 553.3 213.7 552.6 213.3 C 551.9 212.9 551.2 212.4 550.5 211.8 L 550.5 192.7 Z M 543.1 192.7 " fill="#240F0C"></path><path d="M 579.3 197.6 C 580.2 197.6 581.1 197.8 581.8 198.1 C 582.5 198.5 583.2 199.1 584.0 199.9 L 584.0 203.6 C 582.5 203.6 581.3 203.4 580.3 203.2 C 579.4 203.0 578.6 202.8 578.1 202.5 C 577.5 202.1 577.1 201.8 576.9 201.4 C 576.7 201.0 576.6 200.6 576.6 200.1 C 576.6 199.2 576.8 198.5 577.3 198.1 C 577.7 197.8 578.4 197.6 579.3 197.6 M 587.8 192.7 C 587.1 192.7 586.5 192.8 586.2 193.0 C 585.8 193.2 585.5 193.6 585.3 194.3 L 584.8 195.8 C 584.2 195.2 583.6 194.7 583.0 194.3 C 582.4 193.8 581.8 193.5 581.2 193.2 C 580.6 192.9 580.0 192.6 579.3 192.5 C 578.6 192.4 577.8 192.3 577.0 192.3 C 575.8 192.3 574.8 192.4 573.9 192.8 C 573.0 193.1 572.2 193.6 571.6 194.2 C 570.9 194.8 570.4 195.6 570.1 196.5 C 569.7 197.4 569.5 198.5 569.5 199.7 C 569.5 200.6 569.8 201.6 570.2 202.6 C 570.7 203.6 571.4 204.5 572.5 205.4 C 573.6 206.2 575.1 206.9 576.9 207.4 C 578.8 208.0 581.1 208.3 584.0 208.3 L 584.0 209.4 C 584.0 211.0 583.7 212.1 583.1 212.8 C 582.5 213.5 581.6 213.9 580.5 213.9 C 579.7 213.9 579.0 213.8 578.4 213.6 C 577.8 213.4 577.3 213.1 576.9 212.9 C 576.5 212.6 576.0 212.4 575.6 212.2 C 575.2 212.0 574.7 211.9 574.2 211.9 C 573.7 211.9 573.2 212.0 572.9 212.3 C 572.5 212.5 572.2 212.9 572.0 213.3 L 570.7 215.8 C 572.2 217.2 573.8 218.3 575.6 219.0 C 577.5 219.7 579.4 220.0 581.5 220.0 C 583.0 220.0 584.3 219.8 585.5 219.2 C 586.7 218.7 587.7 218.0 588.6 217.0 C 589.4 216.1 590.0 215.0 590.5 213.7 C 590.9 212.4 591.1 211.0 591.1 209.4 L 591.1 192.7 Z M 587.8 192.7 " fill="#240F0C"></path><path d="M 596.4 192.7 L 596.4 219.5 L 600.8 219.5 C 601.1 219.5 601.4 219.5 601.7 219.4 C 601.9 219.3 602.1 219.2 602.3 219.1 C 602.5 218.9 602.6 218.7 602.7 218.5 C 602.8 218.3 602.8 218.0 602.9 217.6 L 603.3 215.1 C 604.2 216.6 605.2 217.8 606.3 218.7 C 607.5 219.6 608.7 220.0 610.0 220.0 C 611.2 220.0 612.1 219.7 612.7 219.1 L 611.8 213.2 C 611.7 212.9 611.6 212.6 611.4 212.5 C 611.2 212.3 611.0 212.3 610.6 212.3 C 610.4 212.3 610.1 212.3 609.7 212.4 C 609.3 212.5 608.9 212.5 608.3 212.5 C 606.4 212.5 604.9 211.4 603.7 209.1 L 603.7 192.7 Z M 596.4 192.7 " fill="#240F0C"></path><path d="M 626.7 214.4 C 625.3 214.4 624.2 213.9 623.4 213.1 C 622.6 212.2 622.1 211.0 621.8 209.3 L 631.0 209.3 C 631.0 210.0 631.0 210.6 630.8 211.2 C 630.7 211.8 630.4 212.3 630.1 212.8 C 629.7 213.3 629.3 213.7 628.7 213.9 C 628.2 214.2 627.5 214.4 626.7 214.4 M 626.6 219.9 C 628.2 219.9 629.7 219.6 631.1 219.1 C 632.4 218.5 633.6 217.7 634.6 216.7 C 635.5 215.6 636.3 214.3 636.8 212.8 C 637.4 211.3 637.7 209.6 637.7 207.6 C 637.7 207.0 637.6 206.5 637.6 206.2 C 637.5 205.8 637.5 205.5 637.3 205.3 C 637.2 205.0 637.0 204.9 636.8 204.8 C 636.6 204.7 636.3 204.7 636.0 204.7 L 621.8 204.7 C 622.0 202.4 622.6 200.8 623.7 199.8 C 624.7 198.8 626.0 198.3 627.6 198.3 C 628.4 198.3 629.2 198.4 629.8 198.6 C 630.4 198.8 631.0 199.1 631.4 199.4 C 631.9 199.6 632.4 199.9 632.8 200.1 C 633.2 200.3 633.6 200.5 634.0 200.5 C 634.6 200.5 635.1 200.2 635.4 199.8 L 637.5 196.9 C 636.8 195.9 635.9 195.2 635.1 194.6 C 634.2 194.0 633.3 193.5 632.3 193.2 C 631.4 192.8 630.5 192.6 629.6 192.5 C 628.6 192.3 627.8 192.3 626.9 192.3 C 625.2 192.3 623.6 192.6 622.0 193.2 C 620.5 193.8 619.2 194.7 618.1 195.9 C 616.9 197.1 616.0 198.6 615.4 200.4 C 614.7 202.2 614.4 204.3 614.4 206.7 C 614.4 208.5 614.7 210.2 615.2 211.8 C 615.8 213.4 616.6 214.8 617.7 216.0 C 618.7 217.2 620.0 218.2 621.5 218.9 C 623.0 219.6 624.7 219.9 626.6 219.9 " fill="#240F0C"></path><path d="M 474.0 250.2 C 470.0 249.5 466.3 247.7 463.3 244.7 C 463.7 245.1 464.0 245.3 464.2 245.5 C 465.5 246.9 469.1 249.2 474.0 250.2 M 492.5 246.0 C 493.7 245.2 495.0 244.2 496.2 243.0 C 495.0 244.1 493.8 245.1 492.5 246.0 M 496.2 243.0 C 497.2 242.0 498.0 241.1 498.7 240.2 C 498.0 241.1 497.3 241.9 496.5 242.7 C 496.4 242.8 496.3 242.9 496.2 243.0 M 458.1 236.0 C 457.4 233.5 457.1 230.8 457.3 228.2 C 457.3 228.6 457.3 229.0 457.3 229.4 C 457.3 232.0 457.7 234.1 458.1 236.0 M 502.1 234.7 C 505.3 226.9 502.0 220.3 497.3 216.9 C 494.5 215.0 490.9 214.7 488.7 214.7 C 488.1 214.7 487.5 214.7 487.2 214.7 C 485.2 214.2 483.7 214.2 483.7 214.2 C 483.8 214.3 484.0 214.3 484.1 214.4 C 483.5 214.3 482.9 214.3 482.3 214.3 C 481.6 214.3 480.9 214.3 480.2 214.4 C 479.3 211.3 480.8 207.3 483.0 203.5 C 483.2 203.5 483.4 203.5 483.5 203.5 C 489.1 203.5 494.4 205.5 498.4 209.5 C 504.9 216.0 506.0 226.0 502.1 234.7 M 454.0 226.3 C 452.2 226.3 444.5 225.9 439.0 220.5 C 430.4 211.8 431.3 196.9 440.9 187.2 C 441.0 187.1 441.1 187.1 441.2 187.0 C 430.0 198.2 435.2 207.6 441.5 212.1 C 445.8 215.1 450.9 215.2 450.9 215.2 C 450.8 215.1 450.7 215.1 450.7 215.0 C 450.7 215.0 450.7 215.0 450.8 215.0 C 452.0 215.5 453.6 215.7 455.9 215.7 C 456.3 215.7 456.7 215.7 457.2 215.7 C 457.2 215.7 458.2 218.0 457.3 221.1 C 456.4 224.2 454.4 226.3 454.4 226.3 C 454.4 226.3 454.3 226.3 454.0 226.3 M 458.7 221.5 C 459.9 218.1 461.9 214.8 464.6 212.0 C 461.5 215.3 459.8 218.6 458.7 221.5 M 471.4 219.5 L 471.5 219.4 L 471.5 219.4 C 471.5 219.4 471.4 219.5 471.4 219.5 M 472.9 218.0 C 475.9 214.6 477.6 211.3 478.7 208.5 C 477.5 211.9 475.5 215.1 472.9 218.0 M 480.1 201.7 C 480.1 201.3 480.1 200.9 480.1 200.6 C 480.1 198.0 479.8 195.8 479.3 194.0 C 480.0 196.5 480.3 199.1 480.1 201.7 M 441.2 186.9 C 442.4 185.8 443.6 184.8 444.9 183.9 C 443.7 184.8 442.5 185.8 441.2 186.9 M 474.1 185.2 C 473.7 184.9 473.4 184.6 473.2 184.4 C 471.9 183.1 468.3 180.7 463.4 179.7 C 467.4 180.4 471.1 182.3 474.1 185.2 " fill="#F8A443"></path><path d="M 478.6 250.7 C 476.9 250.7 475.4 250.5 474.0 250.2 C 475.3 250.5 476.7 250.6 478.1 250.6 C 483.0 250.6 488.1 249.1 492.5 246.0 C 487.6 249.5 482.8 250.7 478.6 250.7 M 463.3 244.7 C 461.9 243.5 459.4 241.0 458.1 236.0 C 459.1 239.2 460.7 242.2 463.2 244.6 C 463.2 244.7 463.3 244.7 463.3 244.7 M 496.2 243.0 C 496.2 243.0 496.2 243.0 496.2 243.0 L 496.2 243.0 C 496.2 243.0 496.2 243.0 496.2 243.0 M 498.7 240.2 C 500.1 238.5 501.2 236.6 502.1 234.7 C 501.3 236.5 500.2 238.3 498.7 240.2 M 457.3 228.2 C 457.4 226.5 457.7 224.2 458.7 221.5 C 457.9 223.7 457.5 225.9 457.3 228.2 M 468.3 225.7 L 468.3 225.6 C 468.8 223.4 469.9 221.3 471.4 219.5 L 471.3 219.7 C 469.7 221.9 468.8 223.9 468.3 225.7 M 471.5 219.4 C 471.8 219.1 472.0 218.8 472.3 218.5 C 472.5 218.4 472.7 218.2 472.9 218.0 C 472.4 218.4 472.0 218.9 471.5 219.4 M 464.6 212.0 C 464.8 211.8 465.0 211.5 465.2 211.3 C 465.1 211.4 465.1 211.4 465.1 211.5 C 464.9 211.6 464.7 211.8 464.6 212.0 M 478.7 208.5 C 479.5 206.3 480.0 204.0 480.1 201.7 C 480.0 203.4 479.7 205.8 478.7 208.5 M 468.0 207.2 C 468.4 206.3 468.7 205.5 469.0 204.7 C 468.8 205.5 468.4 206.3 468.0 207.2 M 479.3 194.0 C 478.4 190.8 476.7 187.8 474.2 185.3 C 474.2 185.3 474.1 185.2 474.1 185.2 C 475.5 186.5 478.0 188.9 479.3 194.0 M 441.2 187.0 L 441.2 187.0 C 441.2 186.9 441.2 186.9 441.2 186.9 C 441.2 187.0 441.2 187.0 441.2 187.0 M 444.9 183.9 C 449.9 180.4 454.6 179.2 458.9 179.2 C 460.5 179.2 462.0 179.4 463.4 179.7 C 462.1 179.5 460.7 179.3 459.3 179.3 C 454.4 179.3 449.4 180.9 444.9 183.9 " fill="#DB852B"></path><path d="M 478.1 250.6 C 476.7 250.6 475.3 250.5 474.0 250.2 C 469.1 249.2 465.5 246.9 464.2 245.5 C 464.0 245.3 463.7 245.1 463.3 244.7 C 463.3 244.7 463.2 244.7 463.2 244.6 C 460.7 242.2 459.1 239.2 458.1 236.0 C 457.7 234.1 457.3 232.0 457.3 229.4 C 457.3 229.0 457.3 228.6 457.3 228.2 C 457.5 225.9 457.9 223.7 458.7 221.5 C 459.8 218.6 461.5 215.3 464.6 212.0 C 464.7 211.8 464.9 211.6 465.1 211.5 C 459.1 219.4 458.3 224.3 458.3 226.9 C 458.5 237.0 463.1 240.6 464.1 241.6 C 466.6 244.2 471.7 246.7 477.4 246.7 C 482.1 246.7 487.1 245.0 491.7 240.5 C 501.5 230.7 497.4 220.8 491.9 216.8 C 490.3 215.7 488.6 215.1 487.2 214.7 C 487.5 214.7 488.1 214.7 488.7 214.7 C 490.9 214.7 494.9 214.7 497.6 216.6 C 502.3 220.0 505.3 226.9 502.1 234.7 C 501.2 236.6 500.1 238.5 498.7 240.2 C 498.0 241.1 497.2 242.0 496.2 243.0 C 496.2 243.0 496.2 243.0 496.2 243.0 C 495.0 244.2 493.7 245.2 492.5 246.0 C 488.1 249.1 483.0 250.6 478.1 250.6 M 468.3 225.6 C 468.4 223.1 469.0 220.5 470.6 218.2 C 474.7 212.8 478.2 204.5 478.2 201.8 C 478.0 191.7 473.2 188.8 472.2 187.8 C 470.6 186.3 465.9 183.3 459.7 183.3 C 455.1 183.3 449.7 184.9 444.3 190.0 C 434.6 199.7 438.6 208.4 444.2 212.3 C 446.3 213.8 448.9 214.6 450.7 215.0 C 450.7 215.1 450.8 215.1 450.9 215.2 C 450.9 215.2 445.8 215.1 441.5 212.1 C 435.2 207.6 430.0 198.2 441.2 187.0 C 441.2 187.0 441.2 187.0 441.2 186.9 C 442.5 185.8 443.7 184.8 444.9 183.9 C 449.4 180.9 454.4 179.3 459.3 179.3 C 460.7 179.3 462.1 179.5 463.4 179.7 C 468.3 180.7 471.9 183.1 473.2 184.4 C 473.4 184.6 473.7 184.9 474.1 185.2 C 474.1 185.2 474.2 185.3 474.2 185.3 C 476.7 187.8 478.4 190.8 479.3 194.0 C 479.8 195.8 480.1 198.0 480.1 200.6 C 480.1 200.9 480.1 201.3 480.1 201.7 C 480.0 204.0 479.5 206.3 478.7 208.5 C 477.6 211.3 475.9 214.6 472.9 218.0 C 472.7 218.2 472.5 218.4 472.3 218.5 C 472.0 218.8 471.8 219.1 471.5 219.4 L 471.5 219.4 L 471.4 219.5 C 469.9 221.3 468.8 223.4 468.3 225.6 " fill="#D86527"></path><path d="M 479.3 239.9 C 477.2 239.9 475.1 239.3 473.3 238.2 C 472.6 237.8 471.9 237.2 471.3 236.6 C 470.7 236.0 469.8 235.0 469.1 233.6 C 468.1 231.4 467.8 228.9 468.2 226.5 C 468.2 226.2 468.3 226.0 468.3 225.7 C 468.4 229.2 469.5 232.2 470.5 233.2 C 472.5 235.2 474.9 236.0 477.1 236.0 C 481.0 236.0 484.6 233.8 486.6 231.9 C 488.0 230.4 490.6 226.4 489.8 221.9 C 488.9 218.0 487.7 216.5 484.1 214.4 C 486.4 214.8 488.6 215.8 490.4 217.5 C 491.4 218.6 492.2 219.8 492.7 221.1 C 493.0 221.7 493.2 222.4 493.3 223.1 C 494.2 227.2 492.9 231.8 489.6 235.3 C 487.4 237.4 483.6 239.7 479.5 239.9 C 479.4 239.9 479.4 239.9 479.3 239.9 M 452.7 215.4 C 452.7 215.4 451.9 215.3 450.8 215.0 C 450.7 215.0 450.6 215.0 450.6 215.0 C 449.5 214.3 448.6 213.8 447.8 213.2 C 447.6 212.9 447.3 212.7 447.1 212.4 C 446.0 211.4 445.2 210.2 444.7 208.8 C 444.5 208.2 444.3 207.6 444.1 206.8 C 443.2 202.8 444.5 198.1 447.8 194.7 C 450.0 192.6 453.9 190.3 457.9 190.1 C 458.0 190.1 458.0 190.1 458.1 190.1 C 460.2 190.1 462.3 190.6 464.1 191.7 C 464.8 192.2 465.5 192.7 466.1 193.4 C 466.7 193.9 467.6 194.9 468.3 196.3 C 469.3 198.5 469.6 201.0 469.2 203.5 C 469.2 203.9 469.1 204.3 469.0 204.7 C 470.2 199.7 467.2 196.8 466.0 195.6 C 463.9 193.4 461.5 192.6 459.1 192.6 C 455.3 192.6 451.7 194.7 449.7 196.7 C 448.2 198.1 445.1 202.3 446.0 206.8 C 446.9 210.9 448.8 213.2 452.7 215.4 M 465.2 211.3 C 465.4 211.0 465.6 210.8 465.8 210.5 C 466.8 209.3 467.5 208.2 468.0 207.2 C 467.5 208.2 466.9 209.2 466.1 210.3 L 466.0 210.4 C 466.0 210.5 465.9 210.5 465.9 210.5 C 465.7 210.8 465.4 211.0 465.2 211.3 " fill="#F8A443"></path><path d="M 479.0 239.9 C 477.1 239.9 475.1 239.4 473.3 238.2 C 475.1 239.3 477.2 239.9 479.3 239.9 C 479.4 239.9 479.4 239.9 479.5 239.9 C 479.3 239.9 479.1 239.9 479.0 239.9 M 489.6 235.3 C 492.9 231.8 494.2 227.2 493.3 223.1 C 493.4 223.3 493.4 223.5 493.5 223.7 C 494.4 228.8 491.5 233.4 489.8 235.1 C 489.7 235.2 489.7 235.2 489.6 235.3 M 469.1 233.6 C 468.2 231.8 467.6 229.4 468.2 226.5 C 467.8 228.9 468.1 231.4 469.1 233.6 M 492.7 221.1 C 492.2 219.8 491.4 218.6 490.4 217.5 C 488.6 215.8 486.4 214.8 484.1 214.4 C 484.0 214.3 483.8 214.3 483.7 214.2 C 483.7 214.2 485.2 214.2 487.2 214.7 C 486.7 214.7 486.5 214.8 486.5 214.8 C 490.0 216.8 491.7 218.2 492.7 221.1 M 450.8 215.0 C 450.7 215.0 450.7 215.0 450.7 215.0 C 450.6 215.0 450.6 215.0 450.6 215.0 C 450.6 215.0 450.7 215.0 450.8 215.0 M 447.8 213.2 C 446.3 212.0 445.4 210.7 444.7 208.8 C 445.2 210.2 446.0 211.4 447.1 212.4 C 447.3 212.7 447.6 212.9 447.8 213.2 M 465.9 210.5 C 465.9 210.5 466.0 210.5 466.0 210.4 L 466.0 210.5 C 465.9 210.5 465.9 210.5 465.9 210.5 M 444.1 206.8 C 444.0 206.6 444.0 206.4 443.9 206.2 C 443.0 201.1 445.9 196.5 447.6 194.8 C 447.7 194.8 447.8 194.7 447.8 194.7 C 444.5 198.1 443.2 202.8 444.1 206.8 M 469.2 203.5 C 469.6 201.0 469.3 198.5 468.3 196.3 C 469.2 198.1 469.8 200.5 469.2 203.5 M 464.1 191.7 C 462.3 190.6 460.2 190.1 458.1 190.1 C 458.0 190.1 458.0 190.1 457.9 190.1 C 458.1 190.1 458.3 190.1 458.5 190.1 C 460.4 190.1 462.3 190.6 464.1 191.7 " fill="#F27824"></path><path d="M 479.5 239.9 C 483.6 239.7 487.4 237.4 489.6 235.3 C 489.5 235.4 489.4 235.5 489.3 235.6 C 486.5 238.4 482.9 239.8 479.5 239.9 M 473.3 238.2 C 472.6 237.8 471.9 237.2 471.2 236.6 C 470.4 235.7 469.7 234.7 469.1 233.6 C 469.8 235.0 470.7 236.0 471.3 236.6 C 471.9 237.2 472.6 237.8 473.3 238.2 M 468.2 226.5 C 468.2 226.2 468.3 225.9 468.3 225.6 L 468.3 225.7 C 468.3 226.0 468.2 226.2 468.2 226.5 M 493.3 223.1 C 493.2 222.4 493.0 221.7 492.7 221.1 C 493.0 221.8 493.2 222.4 493.3 223.1 M 450.6 215.0 C 449.6 214.6 448.7 214.0 447.8 213.2 C 448.6 213.8 449.5 214.3 450.6 215.0 M 465.1 211.5 C 465.1 211.4 465.1 211.4 465.2 211.3 C 465.4 211.0 465.7 210.8 465.9 210.5 C 465.7 210.8 465.4 211.1 465.1 211.4 C 465.1 211.4 465.1 211.4 465.1 211.5 M 466.0 210.4 L 466.1 210.3 C 466.9 209.2 467.5 208.2 468.0 207.2 C 468.4 206.3 468.8 205.5 469.0 204.7 C 469.1 204.3 469.2 203.9 469.2 203.5 C 468.8 205.9 467.8 208.4 466.0 210.4 M 444.7 208.8 C 444.4 208.2 444.2 207.5 444.1 206.8 C 444.3 207.6 444.5 208.2 444.7 208.8 M 468.3 196.3 C 467.6 194.9 466.7 193.9 466.1 193.4 C 465.5 192.7 464.8 192.2 464.1 191.7 C 464.9 192.2 465.6 192.7 466.2 193.3 C 467.1 194.2 467.8 195.2 468.3 196.3 M 447.8 194.7 C 447.9 194.6 448.0 194.5 448.1 194.4 C 450.9 191.6 454.5 190.1 457.9 190.1 C 453.9 190.3 450.0 192.6 447.8 194.7 " fill="#D86527"></path><path d="M 477.4 246.7 C 471.7 246.7 466.6 244.2 464.1 241.6 C 463.1 240.6 458.5 237.0 458.3 226.9 C 458.3 224.3 459.0 219.4 465.1 211.5 C 465.1 211.4 465.1 211.4 465.1 211.4 C 465.4 211.1 465.7 210.8 465.9 210.6 C 465.9 210.5 465.9 210.5 466.0 210.5 L 466.0 210.4 C 467.8 208.4 468.8 205.9 469.2 203.5 C 469.8 200.5 469.2 198.1 468.3 196.3 C 467.8 195.2 467.1 194.2 466.2 193.3 C 465.6 192.7 464.9 192.2 464.1 191.7 C 462.3 190.6 460.4 190.1 458.5 190.1 C 458.3 190.1 458.1 190.1 457.9 190.1 C 454.5 190.1 450.9 191.6 448.1 194.4 C 448.0 194.5 447.9 194.6 447.8 194.7 C 447.8 194.7 447.7 194.8 447.6 194.8 C 445.9 196.5 443.0 201.1 443.9 206.2 C 444.0 206.4 444.0 206.6 444.1 206.8 C 444.2 207.5 444.4 208.2 444.7 208.8 C 445.4 210.7 446.3 212.0 447.8 213.2 C 448.7 214.0 449.6 214.6 450.6 215.0 C 450.6 215.0 450.6 215.0 450.7 215.0 C 448.9 214.6 446.3 213.8 444.2 212.3 C 438.6 208.4 434.6 199.7 444.3 190.0 C 449.7 184.9 455.1 183.3 459.7 183.3 C 465.9 183.3 470.6 186.3 472.2 187.8 C 473.2 188.8 478.0 191.7 478.2 201.8 C 478.2 204.5 474.7 212.8 470.6 218.2 C 469.0 220.5 468.4 223.1 468.3 225.6 C 468.3 225.9 468.2 226.2 468.2 226.5 C 467.6 229.4 468.2 231.8 469.1 233.6 C 469.7 234.7 470.4 235.7 471.2 236.6 C 471.9 237.2 472.6 237.8 473.3 238.2 C 475.1 239.4 477.1 239.9 479.0 239.9 C 479.1 239.9 479.3 239.9 479.5 239.9 C 482.9 239.8 486.5 238.4 489.3 235.6 C 489.4 235.5 489.5 235.4 489.6 235.3 C 489.7 235.2 489.7 235.2 489.8 235.1 C 491.5 233.4 494.4 228.8 493.5 223.7 C 493.4 223.5 493.4 223.3 493.3 223.1 C 493.2 222.4 493.0 221.8 492.7 221.1 C 491.7 218.2 490.0 216.8 486.5 214.8 C 486.5 214.8 486.7 214.7 487.2 214.7 C 488.6 215.1 490.3 215.7 491.9 216.8 C 497.4 220.8 501.8 230.7 492.1 240.5 C 487.5 245.0 482.1 246.7 477.4 246.7 " fill="#D74E27"></path><path d="M 468.5 161.6 L 469.5 157.5 C 469.7 156.5 469.9 155.5 470.1 154.5 L 470.1 154.5 C 470.3 155.5 470.6 156.5 470.8 157.5 L 472.0 161.6 L 473.9 161.6 L 475.1 157.6 C 475.3 156.5 475.6 155.5 475.8 154.5 L 475.8 154.5 C 476.0 155.5 476.2 156.5 476.4 157.6 L 477.4 161.6 L 479.7 161.6 L 476.8 152.5 L 474.7 152.5 L 473.6 156.2 C 473.3 157.2 473.1 158.0 472.9 159.1 L 472.9 159.1 C 472.7 158.0 472.4 157.1 472.2 156.2 L 471.0 152.5 L 468.9 152.5 L 466.1 161.6 Z M 468.5 161.6 " fill="#555656"></path><path d="M 482.9 161.6 L 483.8 157.5 C 484.1 156.5 484.3 155.5 484.4 154.5 L 484.5 154.5 C 484.7 155.5 485.0 156.5 485.2 157.5 L 486.4 161.6 L 488.3 161.6 L 489.4 157.6 C 489.7 156.5 490.0 155.5 490.2 154.5 L 490.2 154.5 C 490.3 155.5 490.6 156.5 490.8 157.6 L 491.8 161.6 L 494.1 161.6 L 491.2 152.5 L 489.1 152.5 L 488.0 156.2 C 487.7 157.2 487.5 158.0 487.3 159.1 L 487.3 159.1 C 487.1 158.0 486.8 157.1 486.6 156.2 L 485.4 152.5 L 483.2 152.5 L 480.5 161.6 Z M 482.9 161.6 " fill="#555656"></path><path d="M 497.3 161.6 L 498.2 157.5 C 498.4 156.5 498.7 155.5 498.8 154.5 L 498.9 154.5 C 499.1 155.5 499.4 156.5 499.6 157.5 L 500.8 161.6 L 502.7 161.6 L 503.8 157.6 C 504.1 156.5 504.4 155.5 504.6 154.5 L 504.6 154.5 C 504.7 155.5 505.0 156.5 505.2 157.6 L 506.2 161.6 L 508.5 161.6 L 505.6 152.5 L 503.5 152.5 L 502.4 156.2 C 502.1 157.2 501.9 158.0 501.7 159.1 L 501.6 159.1 C 501.4 158.0 501.2 157.1 501.0 156.2 L 499.8 152.5 L 497.6 152.5 L 494.9 161.6 Z M 497.3 161.6 " fill="#555656"></path><path d="M 508.9 153.8 C 508.9 154.6 509.5 155.3 510.3 155.3 C 511.1 155.3 511.7 154.6 511.7 153.8 C 511.7 152.9 511.2 152.3 510.3 152.3 C 509.4 152.3 508.9 152.9 508.9 153.8 " fill="#555656"></path><path d="M 515.6 161.7 C 515.6 160.7 516.4 160.1 517.6 159.7 C 518.5 160.0 519.1 160.7 519.1 161.6 C 519.1 162.4 518.6 163.3 517.4 163.3 C 516.2 163.3 515.6 162.5 515.6 161.7 M 519.4 155.7 C 519.4 157.0 518.5 157.7 517.2 158.0 C 516.0 157.7 515.4 156.9 515.4 155.9 C 515.3 154.9 516.1 153.9 517.4 153.9 C 518.6 153.9 519.4 154.7 519.4 155.7 M 515.3 158.9 C 514.0 159.5 513.4 160.5 513.4 161.6 C 513.4 163.6 515.2 164.9 517.5 164.9 C 520.1 164.9 521.3 163.3 521.3 161.8 C 521.3 160.8 520.8 159.7 519.5 159.1 L 519.5 159.0 C 520.8 158.5 521.8 157.5 521.8 155.9 C 521.8 153.7 519.9 152.3 517.3 152.3 C 514.5 152.3 513.0 153.9 513.0 155.6 C 513.0 157.1 513.9 158.2 515.3 158.8 Z M 515.3 158.9 " fill="#555656"></path><path d="M 523.6 154.6 C 524.1 154.3 525.1 154.0 525.9 154.0 C 526.9 154.0 527.4 154.4 527.4 155.0 C 527.4 155.6 527.0 155.9 525.9 156.3 C 524.1 156.9 523.3 157.9 523.3 159.0 C 523.3 160.6 524.7 161.8 526.8 161.8 C 527.8 161.8 528.7 161.6 529.2 161.3 L 528.8 159.7 C 528.4 159.9 527.7 160.2 526.8 160.2 C 526.0 160.2 525.6 159.8 525.6 159.2 C 525.6 158.7 526.0 158.4 527.2 158.0 C 528.8 157.4 529.6 156.5 529.6 155.2 C 529.6 153.5 528.3 152.3 525.9 152.3 C 524.8 152.3 523.8 152.6 523.1 152.9 Z M 523.6 154.6 " fill="#555656"></path><path d="M 531.5 165.8 L 533.8 165.8 L 533.8 160.4 L 533.9 160.4 C 534.1 160.8 534.5 161.2 535.0 161.4 C 535.5 161.7 536.0 161.8 536.6 161.8 C 538.2 161.8 539.8 160.8 539.8 157.9 L 539.8 152.5 L 537.5 152.5 L 537.5 157.6 C 537.5 159.0 537.0 160.0 535.7 160.0 C 534.8 160.0 534.2 159.4 533.9 158.7 C 533.8 158.5 533.8 158.2 533.8 158.0 L 533.8 152.5 L 531.5 152.5 Z M 531.5 165.8 " fill="#555656"></path><path d="M 547.1 157.0 C 545.5 157.0 543.9 156.6 543.9 155.3 C 543.9 154.3 544.5 153.9 545.2 153.9 C 546.2 153.9 546.8 154.5 547.1 155.2 C 547.1 155.4 547.1 155.5 547.1 155.7 Z M 549.4 154.7 C 549.4 153.9 549.4 153.1 549.5 152.5 L 547.4 152.5 L 547.3 153.5 L 547.2 153.5 C 546.7 152.8 545.7 152.3 544.5 152.3 C 542.7 152.3 541.6 153.6 541.6 155.0 C 541.6 157.3 543.7 158.5 547.1 158.5 L 547.1 158.6 C 547.1 159.2 546.8 160.2 545.2 160.2 C 544.3 160.2 543.4 159.9 542.7 159.5 L 542.3 161.0 C 543.0 161.5 544.1 161.8 545.6 161.8 C 548.5 161.8 549.4 160.0 549.4 158.0 Z M 549.4 154.7 " fill="#555656"></path><path d="M 551.8 158.7 C 551.8 159.9 551.8 160.8 551.7 161.6 L 553.7 161.6 L 553.8 159.9 L 553.9 159.9 C 554.3 161.2 555.4 161.9 556.4 161.9 C 556.6 161.9 556.8 161.8 556.9 161.8 L 556.9 159.6 C 556.7 159.7 556.5 159.7 556.2 159.7 C 555.2 159.7 554.4 159.0 554.2 157.9 C 554.1 157.7 554.1 157.5 554.1 157.2 L 554.1 152.5 L 551.8 152.5 Z M 551.8 158.7 " fill="#555656"></path><path d="M 564.0 158.0 C 564.0 158.9 563.6 160.3 562.1 160.3 C 560.7 160.3 560.1 159.0 560.0 158.0 Z M 560.0 156.4 C 560.0 154.8 561.3 154.0 562.8 154.0 C 563.9 154.0 564.6 154.2 565.3 154.5 L 565.7 152.9 C 564.9 152.5 563.8 152.3 562.5 152.3 C 559.5 152.3 557.8 154.1 557.8 156.9 C 557.8 159.5 559.3 161.9 562.2 161.9 C 565.2 161.9 566.2 159.4 566.2 157.4 C 566.2 157.0 566.1 156.6 566.1 156.4 Z M 560.0 156.4 " fill="#555656"></path><path d="M 567.5 153.8 C 567.5 154.6 568.1 155.3 568.9 155.3 C 569.8 155.3 570.4 154.6 570.4 153.8 C 570.4 152.9 569.8 152.3 568.9 152.3 C 568.1 152.3 567.5 152.9 567.5 153.8 " fill="#555656"></path><path d="M 578.9 152.8 C 578.5 152.5 577.5 152.3 576.3 152.3 C 573.5 152.3 571.6 154.1 571.6 157.0 C 571.6 159.7 573.5 161.9 576.7 161.9 C 577.6 161.9 578.4 161.7 579.0 161.4 L 578.5 159.7 C 578.2 159.9 577.6 160.0 576.8 160.0 C 575.0 160.0 574.0 158.7 574.0 157.1 C 574.0 155.2 575.2 154.1 576.8 154.1 C 577.6 154.1 578.2 154.3 578.6 154.5 Z M 578.9 152.8 " fill="#555656"></path><path d="M 582.3 157.1 C 582.3 155.3 583.2 154.0 584.6 154.0 C 585.9 154.0 586.8 155.2 586.8 157.1 C 586.8 158.5 586.2 160.2 584.6 160.2 C 582.9 160.2 582.3 158.6 582.3 157.1 M 589.2 157.2 C 589.2 153.8 586.8 152.3 584.5 152.3 C 581.9 152.3 579.9 154.0 579.9 157.0 C 579.9 160.0 581.9 161.9 584.6 161.9 C 587.4 161.9 589.2 159.9 589.2 157.2 " fill="#555656"></path><path d="M 591.1 158.9 C 591.1 160.0 591.1 160.9 591.0 161.6 L 593.0 161.6 L 593.1 160.3 L 593.2 160.3 C 593.6 161.0 594.4 161.8 596.0 161.8 C 597.2 161.8 598.1 161.2 598.5 160.2 L 598.6 160.2 C 598.9 160.7 599.3 161.0 599.7 161.3 C 600.2 161.7 600.8 161.8 601.5 161.8 C 603.0 161.8 604.6 160.8 604.6 157.9 L 604.6 152.5 L 602.3 152.5 L 602.3 157.5 C 602.3 159.1 601.8 160.0 600.7 160.0 C 599.9 160.0 599.3 159.4 599.1 158.7 C 599.0 158.5 599.0 158.2 599.0 158.0 L 599.0 152.5 L 596.7 152.5 L 596.7 157.8 C 596.7 159.1 596.2 160.0 595.1 160.0 C 594.3 160.0 593.7 159.3 593.5 158.7 C 593.4 158.4 593.3 158.2 593.3 157.9 L 593.3 152.5 L 591.1 152.5 Z M 591.1 158.9 " fill="#555656"></path></g></g></g></g><image xlink:href="../../F00AF1D6-330F-4101-9083-4939E8FF13B1/assets/BD82CFA4F0B33BF5C33BCE3877287296.png" width="2000.00" height="500.00" transform="matrix(0.16, 0.00, -0.00, -0.16, 649.1, 242.6)"></image><g><clipPath id="clip0x6000014b33e0"><path d="M -363.0 525.0 L 574.0 525.0 L 574.0 -178.0 L -363.0 -178.0 Z M -362.8 525.4 "></path></clipPath><g clip-path="url(#clip0x6000014b33e0)"><image xlink:href="../../F00AF1D6-330F-4101-9083-4939E8FF13B1/assets/50DA418E477045523AEC95A7EC8BD656.png" width="1024.00" height="768.00" transform="matrix(0.39, 0.00, -0.00, -0.39, 18.9, 349.7)"></image></g></g></g></svg>