<?xml version="1.0" encoding="UTF-8" standalone="no"?><svg xmlns="http://www.w3.org/2000/svg" xmlns:xlink="http://www.w3.org/1999/xlink" clip-rule="evenodd" stroke-miterlimit="10" viewBox="0 0 736 128"><desc>SVG generated by Keynote</desc><defs></defs><g transform="matrix(1.00, 0.00, -0.00, -1.00, 0.0, 128.0)"><text xml:space="preserve" font-family="YanoneKaffeesatz-Regular,Yanone Kaffeesatz" font-size="64.0" fill="#787878" transform="matrix(1.00, 0.00, -0.00, -1.00, 1.1, 79.2)">A</text><text xml:space="preserve" font-family="YanoneKaffeesatz-Regular,Yanone Kaffeesatz" font-size="64.0" fill="#787878" transform="matrix(1.00, 0.00, -0.00, -1.00, 29.1, 79.2)">n</text><text xml:space="preserve" font-family="YanoneKaffeesatz-Regular,Yanone Kaffeesatz" font-size="64.0" fill="#787878" transform="matrix(1.00, 0.00, -0.00, -1.00, 53.5, 79.2)"> </text><text xml:space="preserve" font-family="YanoneKaffeesatz-Regular,Yanone Kaffeesatz" font-size="64.0" fill="#787878" transform="matrix(1.00, 0.00, -0.00, -1.00, 63.6, 79.2)">e</text><text xml:space="preserve" font-family="YanoneKaffeesatz-Regular,Yanone Kaffeesatz" font-size="64.0" fill="#787878" transform="matrix(1.00, 0.00, -0.00, -1.00, 86.2, 79.2)">x</text><text xml:space="preserve" font-family="YanoneKaffeesatz-Regular,Yanone Kaffeesatz" font-size="64.0" fill="#787878" transform="matrix(1.00, 0.00, -0.00, -1.00, 111.8, 79.2)">p</text><text xml:space="preserve" font-family="YanoneKaffeesatz-Regular,Yanone Kaffeesatz" font-size="64.0" fill="#787878" transform="matrix(1.00, 0.00, -0.00, -1.00, 136.3, 79.2)">r</text><text xml:space="preserve" font-family="YanoneKaffeesatz-Regular,Yanone Kaffeesatz" font-size="64.0" fill="#787878" transform="matrix(1.00, 0.00, -0.00, -1.00, 151.8, 79.2)">e</text><text xml:space="preserve" font-family="YanoneKaffeesatz-Regular,Yanone Kaffeesatz" font-size="64.0" fill="#787878" transform="matrix(1.00, 0.00, -0.00, -1.00, 174.9, 79.2)">s</text><text xml:space="preserve" font-family="YanoneKaffeesatz-Regular,Yanone Kaffeesatz" font-size="64.0" fill="#787878" transform="matrix(1.00, 0.00, -0.00, -1.00, 197.0, 79.2)">s</text><text xml:space="preserve" font-family="YanoneKaffeesatz-Regular,Yanone Kaffeesatz" font-size="64.0" fill="#787878" transform="matrix(1.00, 0.00, -0.00, -1.00, 219.1, 79.2)">i</text><text xml:space="preserve" font-family="YanoneKaffeesatz-Regular,Yanone Kaffeesatz" font-size="64.0" fill="#787878" transform="matrix(1.00, 0.00, -0.00, -1.00, 230.3, 79.2)">o</text><text xml:space="preserve" font-family="YanoneKaffeesatz-Regular,Yanone Kaffeesatz" font-size="64.0" fill="#787878" transform="matrix(1.00, 0.00, -0.00, -1.00, 253.8, 79.2)">n</text><text xml:space="preserve" font-family="YanoneKaffeesatz-Regular,Yanone Kaffeesatz" font-size="64.0" fill="#787878" transform="matrix(1.00, 0.00, -0.00, -1.00, 278.3, 79.2)"> </text><text xml:space="preserve" font-family="YanoneKaffeesatz-Regular,Yanone Kaffeesatz" font-size="64.0" fill="#787878" transform="matrix(1.00, 0.00, -0.00, -1.00, 288.3, 79.2)">i</text><text xml:space="preserve" font-family="YanoneKaffeesatz-Regular,Yanone Kaffeesatz" font-size="64.0" fill="#787878" transform="matrix(1.00, 0.00, -0.00, -1.00, 299.5, 79.2)">s</text><text xml:space="preserve" font-family="YanoneKaffeesatz-Regular,Yanone Kaffeesatz" font-size="64.0" fill="#787878" transform="matrix(1.00, 0.00, -0.00, -1.00, 321.6, 79.2)"> </text><text xml:space="preserve" font-family="YanoneKaffeesatz-Regular,Yanone Kaffeesatz" font-size="64.0" fill="#787878" transform="matrix(1.00, 0.00, -0.00, -1.00, 331.6, 79.2)">a</text><text xml:space="preserve" font-family="YanoneKaffeesatz-Regular,Yanone Kaffeesatz" font-size="64.0" fill="#787878" transform="matrix(1.00, 0.00, -0.00, -1.00, 354.3, 79.2)">n</text><text xml:space="preserve" font-family="YanoneKaffeesatz-Regular,Yanone Kaffeesatz" font-size="64.0" fill="#787878" transform="matrix(1.00, 0.00, -0.00, -1.00, 378.8, 79.2)">y</text><text xml:space="preserve" font-family="YanoneKaffeesatz-Regular,Yanone Kaffeesatz" font-size="64.0" fill="#787878" transform="matrix(1.00, 0.00, -0.00, -1.00, 401.5, 79.2)"> </text><text xml:space="preserve" font-family="YanoneKaffeesatz-Regular,Yanone Kaffeesatz" font-size="64.0" fill="#787878" transform="matrix(1.00, 0.00, -0.00, -1.00, 411.6, 79.2)">u</text><text xml:space="preserve" font-family="YanoneKaffeesatz-Regular,Yanone Kaffeesatz" font-size="64.0" fill="#787878" transform="matrix(1.00, 0.00, -0.00, -1.00, 436.5, 79.2)">n</text><text xml:space="preserve" font-family="YanoneKaffeesatz-Regular,Yanone Kaffeesatz" font-size="64.0" fill="#787878" transform="matrix(1.00, 0.00, -0.00, -1.00, 461.0, 79.2)">i</text><text xml:space="preserve" font-family="YanoneKaffeesatz-Regular,Yanone Kaffeesatz" font-size="64.0" fill="#787878" transform="matrix(1.00, 0.00, -0.00, -1.00, 472.2, 79.2)">t</text><text xml:space="preserve" font-family="YanoneKaffeesatz-Regular,Yanone Kaffeesatz" font-size="64.0" fill="#787878" transform="matrix(1.00, 0.00, -0.00, -1.00, 490.8, 79.2)"> </text><text xml:space="preserve" font-family="YanoneKaffeesatz-Regular,Yanone Kaffeesatz" font-size="64.0" fill="#787878" transform="matrix(1.00, 0.00, -0.00, -1.00, 500.9, 79.2)">o</text><text xml:space="preserve" font-family="YanoneKaffeesatz-Regular,Yanone Kaffeesatz" font-size="64.0" fill="#787878" transform="matrix(1.00, 0.00, -0.00, -1.00, 523.8, 79.2)">f</text><text xml:space="preserve" font-family="YanoneKaffeesatz-Regular,Yanone Kaffeesatz" font-size="64.0" fill="#787878" transform="matrix(1.00, 0.00, -0.00, -1.00, 540.1, 79.2)"> </text><text xml:space="preserve" font-family="YanoneKaffeesatz-Regular,Yanone Kaffeesatz" font-size="64.0" fill="#787878" transform="matrix(1.00, 0.00, -0.00, -1.00, 550.1, 79.2)">c</text><text xml:space="preserve" font-family="YanoneKaffeesatz-Regular,Yanone Kaffeesatz" font-size="64.0" fill="#787878" transform="matrix(1.00, 0.00, -0.00, -1.00, 569.4, 79.2)">o</text><text xml:space="preserve" font-family="YanoneKaffeesatz-Regular,Yanone Kaffeesatz" font-size="64.0" fill="#787878" transform="matrix(1.00, 0.00, -0.00, -1.00, 593.0, 79.2)">d</text><text xml:space="preserve" font-family="YanoneKaffeesatz-Regular,Yanone Kaffeesatz" font-size="64.0" fill="#787878" transform="matrix(1.00, 0.00, -0.00, -1.00, 617.7, 79.2)">e</text><text xml:space="preserve" font-family="YanoneKaffeesatz-Regular,Yanone Kaffeesatz" font-size="64.0" fill="#787878" transform="matrix(1.00, 0.00, -0.00, -1.00, 640.8, 79.2)"> </text><text xml:space="preserve" font-family="YanoneKaffeesatz-Regular,Yanone Kaffeesatz" font-size="64.0" fill="#787878" transform="matrix(1.00, 0.00, -0.00, -1.00, 650.8, 79.2)">t</text><text xml:space="preserve" font-family="YanoneKaffeesatz-Regular,Yanone Kaffeesatz" font-size="64.0" fill="#787878" transform="matrix(1.00, 0.00, -0.00, -1.00, 669.4, 79.2)">h</text><text xml:space="preserve" font-family="YanoneKaffeesatz-Regular,Yanone Kaffeesatz" font-size="64.0" fill="#787878" transform="matrix(1.00, 0.00, -0.00, -1.00, 693.8, 79.2)">a</text><text xml:space="preserve" font-family="YanoneKaffeesatz-Regular,Yanone Kaffeesatz" font-size="64.0" fill="#787878" transform="matrix(1.00, 0.00, -0.00, -1.00, 715.3, 79.2)">t</text><text xml:space="preserve" font-family="YanoneKaffeesatz-Regular,Yanone Kaffeesatz" font-size="64.0" fill="#787878" transform="matrix(1.00, 0.00, -0.00, -1.00, 734.0, 79.2)"> </text><text xml:space="preserve" font-family="YanoneKaffeesatz-Regular,Yanone Kaffeesatz" font-size="64.0" fill="#787878" transform="matrix(1.00, 0.00, -0.00, -1.00, 1.1, 3.2)">r</text><text xml:space="preserve" font-family="YanoneKaffeesatz-Regular,Yanone Kaffeesatz" font-size="64.0" fill="#787878" transform="matrix(1.00, 0.00, -0.00, -1.00, 16.6, 3.2)">e</text><text xml:space="preserve" font-family="YanoneKaffeesatz-Regular,Yanone Kaffeesatz" font-size="64.0" fill="#787878" transform="matrix(1.00, 0.00, -0.00, -1.00, 39.7, 3.2)">s</text><text xml:space="preserve" font-family="YanoneKaffeesatz-Regular,Yanone Kaffeesatz" font-size="64.0" fill="#787878" transform="matrix(1.00, 0.00, -0.00, -1.00, 61.8, 3.2)">o</text><text xml:space="preserve" font-family="YanoneKaffeesatz-Regular,Yanone Kaffeesatz" font-size="64.0" fill="#787878" transform="matrix(1.00, 0.00, -0.00, -1.00, 85.3, 3.2)">l</text><text xml:space="preserve" font-family="YanoneKaffeesatz-Regular,Yanone Kaffeesatz" font-size="64.0" fill="#787878" transform="matrix(1.00, 0.00, -0.00, -1.00, 96.4, 3.2)">v</text><text xml:space="preserve" font-family="YanoneKaffeesatz-Regular,Yanone Kaffeesatz" font-size="64.0" fill="#787878" transform="matrix(1.00, 0.00, -0.00, -1.00, 116.9, 3.2)">e</text><text xml:space="preserve" font-family="YanoneKaffeesatz-Regular,Yanone Kaffeesatz" font-size="64.0" fill="#787878" transform="matrix(1.00, 0.00, -0.00, -1.00, 140.0, 3.2)">s</text><text xml:space="preserve" font-family="YanoneKaffeesatz-Regular,Yanone Kaffeesatz" font-size="64.0" fill="#787878" transform="matrix(1.00, 0.00, -0.00, -1.00, 162.0, 3.2)"> </text><text xml:space="preserve" font-family="YanoneKaffeesatz-Regular,Yanone Kaffeesatz" font-size="64.0" fill="#787878" transform="matrix(1.00, 0.00, -0.00, -1.00, 172.1, 3.2)">t</text><text xml:space="preserve" font-family="YanoneKaffeesatz-Regular,Yanone Kaffeesatz" font-size="64.0" fill="#787878" transform="matrix(1.00, 0.00, -0.00, -1.00, 189.6, 3.2)">o</text><text xml:space="preserve" font-family="YanoneKaffeesatz-Regular,Yanone Kaffeesatz" font-size="64.0" fill="#787878" transform="matrix(1.00, 0.00, -0.00, -1.00, 213.2, 3.2)"> </text><text xml:space="preserve" font-family="YanoneKaffeesatz-Regular,Yanone Kaffeesatz" font-size="64.0" fill="#787878" transform="matrix(1.00, 0.00, -0.00, -1.00, 223.2, 3.2)">a</text><text xml:space="preserve" font-family="YanoneKaffeesatz-Regular,Yanone Kaffeesatz" font-size="64.0" fill="#787878" transform="matrix(1.00, 0.00, -0.00, -1.00, 245.9, 3.2)"> </text><text xml:space="preserve" font-family="YanoneKaffeesatz-Regular,Yanone Kaffeesatz" font-size="64.0" fill="#787878" transform="matrix(1.00, 0.00, -0.00, -1.00, 255.9, 3.2)">v</text><text xml:space="preserve" font-family="YanoneKaffeesatz-Regular,Yanone Kaffeesatz" font-size="64.0" fill="#787878" transform="matrix(1.00, 0.00, -0.00, -1.00, 277.2, 3.2)">a</text><text xml:space="preserve" font-family="YanoneKaffeesatz-Regular,Yanone Kaffeesatz" font-size="64.0" fill="#787878" transform="matrix(1.00, 0.00, -0.00, -1.00, 299.9, 3.2)">l</text><text xml:space="preserve" font-family="YanoneKaffeesatz-Regular,Yanone Kaffeesatz" font-size="64.0" fill="#787878" transform="matrix(1.00, 0.00, -0.00, -1.00, 311.0, 3.2)">u</text><text xml:space="preserve" font-family="YanoneKaffeesatz-Regular,Yanone Kaffeesatz" font-size="64.0" fill="#787878" transform="matrix(1.00, 0.00, -0.00, -1.00, 335.9, 3.2)">e</text></g></svg>