<?xml version="1.0" encoding="UTF-8" standalone="no"?><svg xmlns="http://www.w3.org/2000/svg" xmlns:xlink="http://www.w3.org/1999/xlink" clip-rule="evenodd" stroke-miterlimit="10" viewBox="0 0 1024 768"><desc>SVG generated by Keynote</desc><defs></defs><g transform="matrix(1.00, 0.00, -0.00, -1.00, 0.0, 768.0)"><path d="M 0.0 768.0 L 1024.0 768.0 L 1024.0 0.0 L 0.0 0.0 Z M 0.0 768.0 " fill="#F1F2EC"></path><text xml:space="preserve" font-family="YanoneKaffeesatz-Regular,Yanone Kaffeesatz" font-size="63.0" fill="#787878" transform="matrix(1.00, 0.00, -0.00, -1.00, 104.0, 397.4)">R</text><text xml:space="preserve" font-family="YanoneKaffeesatz-Regular,Yanone Kaffeesatz" font-size="63.0" fill="#787878" transform="matrix(1.00, 0.00, -0.00, -1.00, 126.7, 397.4)">e</text><text xml:space="preserve" font-family="YanoneKaffeesatz-Regular,Yanone Kaffeesatz" font-size="63.0" fill="#787878" transform="matrix(1.00, 0.00, -0.00, -1.00, 149.4, 397.4)">f</text><text xml:space="preserve" font-family="YanoneKaffeesatz-Regular,Yanone Kaffeesatz" font-size="63.0" fill="#787878" transform="matrix(1.00, 0.00, -0.00, -1.00, 164.2, 397.4)">e</text><text xml:space="preserve" font-family="YanoneKaffeesatz-Regular,Yanone Kaffeesatz" font-size="63.0" fill="#787878" transform="matrix(1.00, 0.00, -0.00, -1.00, 187.0, 397.4)">r</text><text xml:space="preserve" font-family="YanoneKaffeesatz-Regular,Yanone Kaffeesatz" font-size="63.0" fill="#787878" transform="matrix(1.00, 0.00, -0.00, -1.00, 202.2, 397.4)">e</text><text xml:space="preserve" font-family="YanoneKaffeesatz-Regular,Yanone Kaffeesatz" font-size="63.0" fill="#787878" transform="matrix(1.00, 0.00, -0.00, -1.00, 225.0, 397.4)">n</text><text xml:space="preserve" font-family="YanoneKaffeesatz-Regular,Yanone Kaffeesatz" font-size="63.0" fill="#787878" transform="matrix(1.00, 0.00, -0.00, -1.00, 249.0, 397.4)">c</text><text xml:space="preserve" font-family="YanoneKaffeesatz-Regular,Yanone Kaffeesatz" font-size="63.0" fill="#787878" transform="matrix(1.00, 0.00, -0.00, -1.00, 267.7, 397.4)">e</text><text xml:space="preserve" font-family="YanoneKaffeesatz-Regular,Yanone Kaffeesatz" font-size="63.0" fill="#787878" transform="matrix(1.00, 0.00, -0.00, -1.00, 290.5, 397.4)">:</text><text xml:space="preserve" font-family="YanoneKaffeesatz-Regular,Yanone Kaffeesatz" font-size="63.0" fill="#787878" transform="matrix(1.00, 0.00, -0.00, -1.00, 302.0, 397.4)"> </text><text xml:space="preserve" font-family="YanoneKaffeesatz-Regular,Yanone Kaffeesatz" font-size="63.0" fill="#787878" transform="matrix(1.00, 0.00, -0.00, -1.00, 311.9, 397.4)">h</text><text xml:space="preserve" font-family="YanoneKaffeesatz-Regular,Yanone Kaffeesatz" font-size="63.0" fill="#787878" transform="matrix(1.00, 0.00, -0.00, -1.00, 335.4, 397.4)">t</text><text xml:space="preserve" font-family="YanoneKaffeesatz-Regular,Yanone Kaffeesatz" font-size="63.0" fill="#787878" transform="matrix(1.00, 0.00, -0.00, -1.00, 350.3, 397.4)">t</text><text xml:space="preserve" font-family="YanoneKaffeesatz-Regular,Yanone Kaffeesatz" font-size="63.0" fill="#787878" transform="matrix(1.00, 0.00, -0.00, -1.00, 368.7, 397.4)">p</text><text xml:space="preserve" font-family="YanoneKaffeesatz-Regular,Yanone Kaffeesatz" font-size="63.0" fill="#787878" transform="matrix(1.00, 0.00, -0.00, -1.00, 392.8, 397.4)">s</text><text xml:space="preserve" font-family="YanoneKaffeesatz-Regular,Yanone Kaffeesatz" font-size="63.0" fill="#787878" transform="matrix(1.00, 0.00, -0.00, -1.00, 414.5, 397.4)">:</text><text xml:space="preserve" font-family="YanoneKaffeesatz-Regular,Yanone Kaffeesatz" font-size="63.0" fill="#787878" transform="matrix(1.00, 0.00, -0.00, -1.00, 426.6, 397.4)">/</text><text xml:space="preserve" font-family="YanoneKaffeesatz-Regular,Yanone Kaffeesatz" font-size="63.0" fill="#787878" transform="matrix(1.00, 0.00, -0.00, -1.00, 439.3, 397.4)">/</text><text xml:space="preserve" font-family="YanoneKaffeesatz-Regular,Yanone Kaffeesatz" font-size="63.0" fill="#787878" transform="matrix(1.00, 0.00, -0.00, -1.00, 456.1, 397.4)">d</text><text xml:space="preserve" font-family="YanoneKaffeesatz-Regular,Yanone Kaffeesatz" font-size="63.0" fill="#787878" transform="matrix(1.00, 0.00, -0.00, -1.00, 480.4, 397.4)">e</text><text xml:space="preserve" font-family="YanoneKaffeesatz-Regular,Yanone Kaffeesatz" font-size="63.0" fill="#787878" transform="matrix(1.00, 0.00, -0.00, -1.00, 503.2, 397.4)">v</text><text xml:space="preserve" font-family="YanoneKaffeesatz-Regular,Yanone Kaffeesatz" font-size="63.0" fill="#787878" transform="matrix(1.00, 0.00, -0.00, -1.00, 523.3, 397.4)">e</text><text xml:space="preserve" font-family="YanoneKaffeesatz-Regular,Yanone Kaffeesatz" font-size="63.0" fill="#787878" transform="matrix(1.00, 0.00, -0.00, -1.00, 546.1, 397.4)">l</text><text xml:space="preserve" font-family="YanoneKaffeesatz-Regular,Yanone Kaffeesatz" font-size="63.0" fill="#787878" transform="matrix(1.00, 0.00, -0.00, -1.00, 557.0, 397.4)">o</text><text xml:space="preserve" font-family="YanoneKaffeesatz-Regular,Yanone Kaffeesatz" font-size="63.0" fill="#787878" transform="matrix(1.00, 0.00, -0.00, -1.00, 580.2, 397.4)">p</text><text xml:space="preserve" font-family="YanoneKaffeesatz-Regular,Yanone Kaffeesatz" font-size="63.0" fill="#787878" transform="matrix(1.00, 0.00, -0.00, -1.00, 604.3, 397.4)">e</text><text xml:space="preserve" font-family="YanoneKaffeesatz-Regular,Yanone Kaffeesatz" font-size="63.0" fill="#787878" transform="matrix(1.00, 0.00, -0.00, -1.00, 627.0, 397.4)">r</text><text xml:space="preserve" font-family="YanoneKaffeesatz-Regular,Yanone Kaffeesatz" font-size="63.0" fill="#787878" transform="matrix(1.00, 0.00, -0.00, -1.00, 638.8, 397.4)">.</text><text xml:space="preserve" font-family="YanoneKaffeesatz-Regular,Yanone Kaffeesatz" font-size="63.0" fill="#787878" transform="matrix(1.00, 0.00, -0.00, -1.00, 650.3, 397.4)">m</text><text xml:space="preserve" font-family="YanoneKaffeesatz-Regular,Yanone Kaffeesatz" font-size="63.0" fill="#787878" transform="matrix(1.00, 0.00, -0.00, -1.00, 685.8, 397.4)">o</text><text xml:space="preserve" font-family="YanoneKaffeesatz-Regular,Yanone Kaffeesatz" font-size="63.0" fill="#787878" transform="matrix(1.00, 0.00, -0.00, -1.00, 708.5, 397.4)">z</text><text xml:space="preserve" font-family="YanoneKaffeesatz-Regular,Yanone Kaffeesatz" font-size="63.0" fill="#787878" transform="matrix(1.00, 0.00, -0.00, -1.00, 729.6, 397.4)">i</text><text xml:space="preserve" font-family="YanoneKaffeesatz-Regular,Yanone Kaffeesatz" font-size="63.0" fill="#787878" transform="matrix(1.00, 0.00, -0.00, -1.00, 740.6, 397.4)">l</text><text xml:space="preserve" font-family="YanoneKaffeesatz-Regular,Yanone Kaffeesatz" font-size="63.0" fill="#787878" transform="matrix(1.00, 0.00, -0.00, -1.00, 751.5, 397.4)">l</text><text xml:space="preserve" font-family="YanoneKaffeesatz-Regular,Yanone Kaffeesatz" font-size="63.0" fill="#787878" transform="matrix(1.00, 0.00, -0.00, -1.00, 762.4, 397.4)">a</text><text xml:space="preserve" font-family="YanoneKaffeesatz-Regular,Yanone Kaffeesatz" font-size="63.0" fill="#787878" transform="matrix(1.00, 0.00, -0.00, -1.00, 784.7, 397.4)">.</text><text xml:space="preserve" font-family="YanoneKaffeesatz-Regular,Yanone Kaffeesatz" font-size="63.0" fill="#787878" transform="matrix(1.00, 0.00, -0.00, -1.00, 795.0, 397.4)">o</text><text xml:space="preserve" font-family="YanoneKaffeesatz-Regular,Yanone Kaffeesatz" font-size="63.0" fill="#787878" transform="matrix(1.00, 0.00, -0.00, -1.00, 818.2, 397.4)">r</text><text xml:space="preserve" font-family="YanoneKaffeesatz-Regular,Yanone Kaffeesatz" font-size="63.0" fill="#787878" transform="matrix(1.00, 0.00, -0.00, -1.00, 833.4, 397.4)">g</text><text xml:space="preserve" font-family="YanoneKaffeesatz-Regular,Yanone Kaffeesatz" font-size="63.0" fill="#787878" transform="matrix(1.00, 0.00, -0.00, -1.00, 858.7, 397.4)">/</text><g><clipPath id="clip0x6080014af480"><path d="M 310.9 388.1 L 875.6 388.1 L 875.6 394.1 L 310.9 394.1 Z M 310.9 388.1 "></path></clipPath><g clip-path="url(#clip0x6080014af480)"><path d="M 211.9 142.9 L 775.6 142.9 " fill="none" stroke="#787878" stroke-width="4.03" transform="matrix(1.00, 0.00, 0.00, -1.00, 100.0, 534.0)"></path></g></g><text xml:space="preserve" font-family="YanoneKaffeesatz-Regular,Yanone Kaffeesatz" font-size="63.0" fill="#787878" transform="matrix(1.00, 0.00, -0.00, -1.00, 104.0, 322.4)">e</text><text xml:space="preserve" font-family="YanoneKaffeesatz-Regular,Yanone Kaffeesatz" font-size="63.0" fill="#787878" transform="matrix(1.00, 0.00, -0.00, -1.00, 126.7, 322.4)">n</text><text xml:space="preserve" font-family="YanoneKaffeesatz-Regular,Yanone Kaffeesatz" font-size="63.0" fill="#787878" transform="matrix(1.00, 0.00, -0.00, -1.00, 150.8, 322.4)">-</text><text xml:space="preserve" font-family="YanoneKaffeesatz-Regular,Yanone Kaffeesatz" font-size="63.0" fill="#787878" transform="matrix(1.00, 0.00, -0.00, -1.00, 168.3, 322.4)">U</text><text xml:space="preserve" font-family="YanoneKaffeesatz-Regular,Yanone Kaffeesatz" font-size="63.0" fill="#787878" transform="matrix(1.00, 0.00, -0.00, -1.00, 195.9, 322.4)">S</text><text xml:space="preserve" font-family="YanoneKaffeesatz-Regular,Yanone Kaffeesatz" font-size="63.0" fill="#787878" transform="matrix(1.00, 0.00, -0.00, -1.00, 218.4, 322.4)">/</text><text xml:space="preserve" font-family="YanoneKaffeesatz-Regular,Yanone Kaffeesatz" font-size="63.0" fill="#787878" transform="matrix(1.00, 0.00, -0.00, -1.00, 235.2, 322.4)">d</text><text xml:space="preserve" font-family="YanoneKaffeesatz-Regular,Yanone Kaffeesatz" font-size="63.0" fill="#787878" transform="matrix(1.00, 0.00, -0.00, -1.00, 259.5, 322.4)">o</text><text xml:space="preserve" font-family="YanoneKaffeesatz-Regular,Yanone Kaffeesatz" font-size="63.0" fill="#787878" transform="matrix(1.00, 0.00, -0.00, -1.00, 282.7, 322.4)">c</text><text xml:space="preserve" font-family="YanoneKaffeesatz-Regular,Yanone Kaffeesatz" font-size="63.0" fill="#787878" transform="matrix(1.00, 0.00, -0.00, -1.00, 302.5, 322.4)">s</text><text xml:space="preserve" font-family="YanoneKaffeesatz-Regular,Yanone Kaffeesatz" font-size="63.0" fill="#787878" transform="matrix(1.00, 0.00, -0.00, -1.00, 324.7, 322.4)">/</text><text xml:space="preserve" font-family="YanoneKaffeesatz-Regular,Yanone Kaffeesatz" font-size="63.0" fill="#787878" transform="matrix(1.00, 0.00, -0.00, -1.00, 346.8, 322.4)">W</text><text xml:space="preserve" font-family="YanoneKaffeesatz-Regular,Yanone Kaffeesatz" font-size="63.0" fill="#787878" transform="matrix(1.00, 0.00, -0.00, -1.00, 385.6, 322.4)">e</text><text xml:space="preserve" font-family="YanoneKaffeesatz-Regular,Yanone Kaffeesatz" font-size="63.0" fill="#787878" transform="matrix(1.00, 0.00, -0.00, -1.00, 408.4, 322.4)">b</text><text xml:space="preserve" font-family="YanoneKaffeesatz-Regular,Yanone Kaffeesatz" font-size="63.0" fill="#787878" transform="matrix(1.00, 0.00, -0.00, -1.00, 431.9, 322.4)">/</text><text xml:space="preserve" font-family="YanoneKaffeesatz-Regular,Yanone Kaffeesatz" font-size="63.0" fill="#787878" transform="matrix(1.00, 0.00, -0.00, -1.00, 450.5, 322.4)">C</text><text xml:space="preserve" font-family="YanoneKaffeesatz-Regular,Yanone Kaffeesatz" font-size="63.0" fill="#787878" transform="matrix(1.00, 0.00, -0.00, -1.00, 471.5, 322.4)">S</text><text xml:space="preserve" font-family="YanoneKaffeesatz-Regular,Yanone Kaffeesatz" font-size="63.0" fill="#787878" transform="matrix(1.00, 0.00, -0.00, -1.00, 494.0, 322.4)">S</text><text xml:space="preserve" font-family="YanoneKaffeesatz-Regular,Yanone Kaffeesatz" font-size="63.0" fill="#787878" transform="matrix(1.00, 0.00, -0.00, -1.00, 516.6, 322.4)">/</text><text xml:space="preserve" font-family="YanoneKaffeesatz-Regular,Yanone Kaffeesatz" font-size="63.0" fill="#787878" transform="matrix(1.00, 0.00, -0.00, -1.00, 537.7, 322.4)">R</text><text xml:space="preserve" font-family="YanoneKaffeesatz-Regular,Yanone Kaffeesatz" font-size="63.0" fill="#787878" transform="matrix(1.00, 0.00, -0.00, -1.00, 560.4, 322.4)">e</text><text xml:space="preserve" font-family="YanoneKaffeesatz-Regular,Yanone Kaffeesatz" font-size="63.0" fill="#787878" transform="matrix(1.00, 0.00, -0.00, -1.00, 583.1, 322.4)">f</text><text xml:space="preserve" font-family="YanoneKaffeesatz-Regular,Yanone Kaffeesatz" font-size="63.0" fill="#787878" transform="matrix(1.00, 0.00, -0.00, -1.00, 597.9, 322.4)">e</text><text xml:space="preserve" font-family="YanoneKaffeesatz-Regular,Yanone Kaffeesatz" font-size="63.0" fill="#787878" transform="matrix(1.00, 0.00, -0.00, -1.00, 620.7, 322.4)">r</text><text xml:space="preserve" font-family="YanoneKaffeesatz-Regular,Yanone Kaffeesatz" font-size="63.0" fill="#787878" transform="matrix(1.00, 0.00, -0.00, -1.00, 635.9, 322.4)">e</text><text xml:space="preserve" font-family="YanoneKaffeesatz-Regular,Yanone Kaffeesatz" font-size="63.0" fill="#787878" transform="matrix(1.00, 0.00, -0.00, -1.00, 658.7, 322.4)">n</text><text xml:space="preserve" font-family="YanoneKaffeesatz-Regular,Yanone Kaffeesatz" font-size="63.0" fill="#787878" transform="matrix(1.00, 0.00, -0.00, -1.00, 682.7, 322.4)">c</text><text xml:space="preserve" font-family="YanoneKaffeesatz-Regular,Yanone Kaffeesatz" font-size="63.0" fill="#787878" transform="matrix(1.00, 0.00, -0.00, -1.00, 701.4, 322.4)">e</text><g><clipPath id="clip0x6080014b01a0"><path d="M 103.0 313.1 L 724.2 313.1 L 724.2 319.1 L 103.0 319.1 Z M 103.0 313.1 "></path></clipPath><g clip-path="url(#clip0x6080014b01a0)"><path d="M 4.0 217.9 L 624.2 217.9 " fill="none" stroke="#787878" stroke-width="4.03" transform="matrix(1.00, 0.00, 0.00, -1.00, 100.0, 534.0)"></path></g></g></g></svg>