<?xml version="1.0" encoding="UTF-8" standalone="no"?><svg xmlns="http://www.w3.org/2000/svg" xmlns:xlink="http://www.w3.org/1999/xlink" clip-rule="evenodd" stroke-miterlimit="10" viewBox="0 0 202 95"><desc>SVG generated by Keynote</desc><defs></defs><g transform="matrix(1.00, 0.00, -0.00, -1.00, 0.0, 95.0)"><g><clipPath id="clip0x6000014af3c0"><path d="M 40.2 12.1 L 165.7 12.1 L 165.7 0.5 L 40.2 0.5 Z M 40.2 12.1 "></path></clipPath><g clip-path="url(#clip0x6000014af3c0)"><path d="M -0.2 0.3 L 113.9 0.3 L 114.8 0.3 " fill="none" stroke="#7A7A7A" stroke-width="2.00" transform="matrix(1.00, 0.00, 0.00, -1.00, 41.2, 6.3)"></path><path d="M 155.0 1.2 L 164.6 6.0 L 155.0 10.8 Z M 155.0 1.2 " fill="#7A7A7A"></path></g></g><g><clipPath id="clip0x6000014b46a0"><path d="M 48.6 -0.1 L 157.3 -0.1 L 157.3 61.1 L 48.6 61.1 Z M 48.6 -0.1 "></path></clipPath><g clip-path="url(#clip0x6000014b46a0)"><text xml:space="preserve" font-family="YanoneKaffeesatz-Regular,Yanone Kaffeesatz" font-size="35.0" fill="#52575F" transform="matrix(1.00, 0.00, -0.00, -1.00, 59.2, 18.0)">R</text><text xml:space="preserve" font-family="YanoneKaffeesatz-Regular,Yanone Kaffeesatz" font-size="35.0" fill="#52575F" transform="matrix(1.00, 0.00, -0.00, -1.00, 71.8, 18.0)">e</text><text xml:space="preserve" font-family="YanoneKaffeesatz-Regular,Yanone Kaffeesatz" font-size="35.0" fill="#52575F" transform="matrix(1.00, 0.00, -0.00, -1.00, 84.5, 18.0)">q</text><text xml:space="preserve" font-family="YanoneKaffeesatz-Regular,Yanone Kaffeesatz" font-size="35.0" fill="#52575F" transform="matrix(1.00, 0.00, -0.00, -1.00, 98.1, 18.0)">u</text><text xml:space="preserve" font-family="YanoneKaffeesatz-Regular,Yanone Kaffeesatz" font-size="35.0" fill="#52575F" transform="matrix(1.00, 0.00, -0.00, -1.00, 111.8, 18.0)">e</text><text xml:space="preserve" font-family="YanoneKaffeesatz-Regular,Yanone Kaffeesatz" font-size="35.0" fill="#52575F" transform="matrix(1.00, 0.00, -0.00, -1.00, 124.4, 18.0)">s</text><text xml:space="preserve" font-family="YanoneKaffeesatz-Regular,Yanone Kaffeesatz" font-size="35.0" fill="#52575F" transform="matrix(1.00, 0.00, -0.00, -1.00, 136.5, 18.0)">t</text></g></g><g><clipPath id="clip0x6000014a6900"><path d="M -4.2 38.5 L 206.5 38.5 L 206.5 99.7 L -4.2 99.7 Z M -4.2 38.5 "></path></clipPath><g clip-path="url(#clip0x6000014a6900)"><text xml:space="preserve" font-family="YanoneKaffeesatz-Regular,Yanone Kaffeesatz" font-size="35.0" fill="#52575F" transform="matrix(1.00, 0.00, -0.00, -1.00, 6.4, 56.6)">h</text><text xml:space="preserve" font-family="YanoneKaffeesatz-Regular,Yanone Kaffeesatz" font-size="35.0" fill="#52575F" transform="matrix(1.00, 0.00, -0.00, -1.00, 19.5, 56.6)">t</text><text xml:space="preserve" font-family="YanoneKaffeesatz-Regular,Yanone Kaffeesatz" font-size="35.0" fill="#52575F" transform="matrix(1.00, 0.00, -0.00, -1.00, 27.8, 56.6)">t</text><text xml:space="preserve" font-family="YanoneKaffeesatz-Regular,Yanone Kaffeesatz" font-size="35.0" fill="#52575F" transform="matrix(1.00, 0.00, -0.00, -1.00, 38.0, 56.6)">p</text><text xml:space="preserve" font-family="YanoneKaffeesatz-Regular,Yanone Kaffeesatz" font-size="35.0" fill="#52575F" transform="matrix(1.00, 0.00, -0.00, -1.00, 51.4, 56.6)">:</text><text xml:space="preserve" font-family="YanoneKaffeesatz-Regular,Yanone Kaffeesatz" font-size="35.0" fill="#52575F" transform="matrix(1.00, 0.00, -0.00, -1.00, 58.1, 56.6)">/</text><text xml:space="preserve" font-family="YanoneKaffeesatz-Regular,Yanone Kaffeesatz" font-size="35.0" fill="#52575F" transform="matrix(1.00, 0.00, -0.00, -1.00, 65.1, 56.6)">/</text><text xml:space="preserve" font-family="YanoneKaffeesatz-Regular,Yanone Kaffeesatz" font-size="35.0" fill="#52575F" transform="matrix(1.00, 0.00, -0.00, -1.00, 74.9, 56.6)">g</text><text xml:space="preserve" font-family="YanoneKaffeesatz-Regular,Yanone Kaffeesatz" font-size="35.0" fill="#52575F" transform="matrix(1.00, 0.00, -0.00, -1.00, 88.4, 56.6)">o</text><text xml:space="preserve" font-family="YanoneKaffeesatz-Regular,Yanone Kaffeesatz" font-size="35.0" fill="#52575F" transform="matrix(1.00, 0.00, -0.00, -1.00, 101.2, 56.6)">o</text><text xml:space="preserve" font-family="YanoneKaffeesatz-Regular,Yanone Kaffeesatz" font-size="35.0" fill="#52575F" transform="matrix(1.00, 0.00, -0.00, -1.00, 114.1, 56.6)">g</text><text xml:space="preserve" font-family="YanoneKaffeesatz-Regular,Yanone Kaffeesatz" font-size="35.0" fill="#52575F" transform="matrix(1.00, 0.00, -0.00, -1.00, 127.9, 56.6)">l</text><text xml:space="preserve" font-family="YanoneKaffeesatz-Regular,Yanone Kaffeesatz" font-size="35.0" fill="#52575F" transform="matrix(1.00, 0.00, -0.00, -1.00, 133.9, 56.6)">e</text><text xml:space="preserve" font-family="YanoneKaffeesatz-Regular,Yanone Kaffeesatz" font-size="35.0" fill="#52575F" transform="matrix(1.00, 0.00, -0.00, -1.00, 146.6, 56.6)">.</text><text xml:space="preserve" font-family="YanoneKaffeesatz-Regular,Yanone Kaffeesatz" font-size="35.0" fill="#52575F" transform="matrix(1.00, 0.00, -0.00, -1.00, 152.7, 56.6)">c</text><text xml:space="preserve" font-family="YanoneKaffeesatz-Regular,Yanone Kaffeesatz" font-size="35.0" fill="#52575F" transform="matrix(1.00, 0.00, -0.00, -1.00, 163.3, 56.6)">o</text><text xml:space="preserve" font-family="YanoneKaffeesatz-Regular,Yanone Kaffeesatz" font-size="35.0" fill="#52575F" transform="matrix(1.00, 0.00, -0.00, -1.00, 176.1, 56.6)">m</text></g></g></g></svg>