<?xml version="1.0" encoding="UTF-8" standalone="no"?><svg xmlns="http://www.w3.org/2000/svg" xmlns:xlink="http://www.w3.org/1999/xlink" clip-rule="evenodd" stroke-miterlimit="10" viewBox="0 0 434 92"><desc>SVG generated by Keynote</desc><defs></defs><g transform="matrix(1.00, 0.00, -0.00, -1.00, 0.0, 92.0)"><g><clipPath id="clip0x6080012b4dc0"><path d="M 150.5 0.7 L 212.9 0.7 L 212.9 91.3 L 150.5 91.3 Z M 150.5 0.7 "></path></clipPath><g clip-path="url(#clip0x6080012b4dc0)"><image xlink:href="78CD03A8DA8ED963CF55D6AF4AE978DC.png" width="42.00" height="61.00" transform="matrix(1.49, 0.00, -0.00, -1.49, 150.5, 91.3)"></image></g></g><g><clipPath id="clip0x6080012a9120"><path d="M 0.9 53.5 L 145.4 53.5 L 145.4 65.1 L 0.9 65.1 Z M 0.9 53.5 "></path></clipPath><g clip-path="url(#clip0x6080012a9120)"><path d="M 0.1 0.3 L 132.9 0.3 L 134.1 0.3 " fill="none" stroke="#7A7A7A" stroke-width="2.00" transform="matrix(1.00, 0.00, 0.00, -1.00, 1.9, 59.3)"></path><path d="M 135.0 54.2 L 144.6 59.0 L 135.0 63.8 Z M 135.0 54.2 " fill="#7A7A7A"></path></g></g><g><clipPath id="clip0x6080012aa440"><path d="M 223.3 15.9 L 438.2 15.9 L 438.2 77.1 L 223.3 77.1 Z M 223.3 15.9 "></path></clipPath><g clip-path="url(#clip0x6080012aa440)"><text xml:space="preserve" font-family="YanoneKaffeesatz-Regular,Yanone Kaffeesatz" font-size="35.0" fill="#52575F" transform="matrix(1.00, 0.00, -0.00, -1.00, 233.9, 34.0)">G</text><text xml:space="preserve" font-family="YanoneKaffeesatz-Regular,Yanone Kaffeesatz" font-size="35.0" fill="#52575F" transform="matrix(1.00, 0.00, -0.00, -1.00, 247.4, 34.0)">o</text><text xml:space="preserve" font-family="YanoneKaffeesatz-Regular,Yanone Kaffeesatz" font-size="35.0" fill="#52575F" transform="matrix(1.00, 0.00, -0.00, -1.00, 260.2, 34.0)">o</text><text xml:space="preserve" font-family="YanoneKaffeesatz-Regular,Yanone Kaffeesatz" font-size="35.0" fill="#52575F" transform="matrix(1.00, 0.00, -0.00, -1.00, 273.1, 34.0)">g</text><text xml:space="preserve" font-family="YanoneKaffeesatz-Regular,Yanone Kaffeesatz" font-size="35.0" fill="#52575F" transform="matrix(1.00, 0.00, -0.00, -1.00, 286.9, 34.0)">l</text><text xml:space="preserve" font-family="YanoneKaffeesatz-Regular,Yanone Kaffeesatz" font-size="35.0" fill="#52575F" transform="matrix(1.00, 0.00, -0.00, -1.00, 292.9, 34.0)">e</text><text xml:space="preserve" font-family="YanoneKaffeesatz-Regular,Yanone Kaffeesatz" font-size="35.0" fill="#52575F" transform="matrix(1.00, 0.00, -0.00, -1.00, 305.6, 34.0)"> </text><text xml:space="preserve" font-family="YanoneKaffeesatz-Regular,Yanone Kaffeesatz" font-size="35.0" fill="#52575F" transform="matrix(1.00, 0.00, -0.00, -1.00, 311.1, 34.0)">w</text><text xml:space="preserve" font-family="YanoneKaffeesatz-Regular,Yanone Kaffeesatz" font-size="35.0" fill="#52575F" transform="matrix(1.00, 0.00, -0.00, -1.00, 329.1, 34.0)">e</text><text xml:space="preserve" font-family="YanoneKaffeesatz-Regular,Yanone Kaffeesatz" font-size="35.0" fill="#52575F" transform="matrix(1.00, 0.00, -0.00, -1.00, 341.8, 34.0)">b</text><text xml:space="preserve" font-family="YanoneKaffeesatz-Regular,Yanone Kaffeesatz" font-size="35.0" fill="#52575F" transform="matrix(1.00, 0.00, -0.00, -1.00, 355.2, 34.0)"> </text><text xml:space="preserve" font-family="YanoneKaffeesatz-Regular,Yanone Kaffeesatz" font-size="35.0" fill="#52575F" transform="matrix(1.00, 0.00, -0.00, -1.00, 360.7, 34.0)">s</text><text xml:space="preserve" font-family="YanoneKaffeesatz-Regular,Yanone Kaffeesatz" font-size="35.0" fill="#52575F" transform="matrix(1.00, 0.00, -0.00, -1.00, 372.7, 34.0)">e</text><text xml:space="preserve" font-family="YanoneKaffeesatz-Regular,Yanone Kaffeesatz" font-size="35.0" fill="#52575F" transform="matrix(1.00, 0.00, -0.00, -1.00, 385.4, 34.0)">r</text><text xml:space="preserve" font-family="YanoneKaffeesatz-Regular,Yanone Kaffeesatz" font-size="35.0" fill="#52575F" transform="matrix(1.00, 0.00, -0.00, -1.00, 394.6, 34.0)">v</text><text xml:space="preserve" font-family="YanoneKaffeesatz-Regular,Yanone Kaffeesatz" font-size="35.0" fill="#52575F" transform="matrix(1.00, 0.00, -0.00, -1.00, 405.8, 34.0)">e</text><text xml:space="preserve" font-family="YanoneKaffeesatz-Regular,Yanone Kaffeesatz" font-size="35.0" fill="#52575F" transform="matrix(1.00, 0.00, -0.00, -1.00, 418.4, 34.0)">r</text></g></g></g></svg>