<?xml version="1.0" encoding="UTF-8" standalone="no"?><svg xmlns="http://www.w3.org/2000/svg" xmlns:xlink="http://www.w3.org/1999/xlink" clip-rule="evenodd" stroke-miterlimit="10" viewBox="0 0 195 105"><desc>SVG generated by Keynote</desc><defs></defs><g transform="matrix(1.00, 0.00, -0.00, -1.00, 0.0, 105.0)"><g><clipPath id="clip0x6080002ba1c0"><path d="M 0.2 0.6 L 194.4 0.6 L 194.4 104.6 L 0.2 104.6 Z M 0.2 0.6 "></path></clipPath><g clip-path="url(#clip0x6080002ba1c0)"><path d="M 0.5 28.1 C 5.0 20.0 13.0 13.8 22.6 11.0 C 31.0 8.6 40.0 8.9 48.2 12.0 C 53.5 4.7 62.4 0.2 72.0 0.0 C 79.9 -0.2 87.4 2.5 93.0 7.4 C 102.5 1.6 114.5 0.4 125.1 4.2 C 132.8 7.0 139.2 12.3 142.9 19.1 C 158.1 17.8 171.8 27.2 174.9 40.7 C 175.8 44.9 175.6 49.2 174.2 53.3 C 188.4 55.8 194.9 70.9 186.3 81.4 C 182.5 86.1 176.2 88.4 169.9 87.6 C 162.7 92.5 154.3 95.9 145.4 97.8 C 134.2 100.2 122.5 100.0 111.5 97.3 C 102.0 100.1 91.9 100.7 82.0 99.2 C 72.3 97.7 63.2 94.2 55.3 88.9 C 47.0 91.0 38.0 88.5 32.5 82.4 C 27.6 77.0 26.3 69.6 29.0 63.0 C 20.3 62.1 12.3 58.0 6.9 51.7 C 1.2 45.0 -1.1 36.5 0.5 28.1 Z M 0.5 28.1 " fill="none" stroke="#85878C" stroke-width="2.00" transform="matrix(1.00, 0.00, 0.00, -1.00, 2.2, 102.6)"></path></g></g><g><clipPath id="clip0x6080012b75e0"><path d="M 46.1 23.9 L 153.9 23.9 L 153.9 85.1 L 46.1 85.1 Z M 46.1 23.9 "></path></clipPath><g clip-path="url(#clip0x6080012b75e0)"><text xml:space="preserve" font-family="YanoneKaffeesatz-Regular,Yanone Kaffeesatz" font-size="35.0" fill="#52575F" transform="matrix(1.00, 0.00, -0.00, -1.00, 56.7, 42.0)">I</text><text xml:space="preserve" font-family="YanoneKaffeesatz-Regular,Yanone Kaffeesatz" font-size="35.0" fill="#52575F" transform="matrix(1.00, 0.00, -0.00, -1.00, 62.6, 42.0)">n</text><text xml:space="preserve" font-family="YanoneKaffeesatz-Regular,Yanone Kaffeesatz" font-size="35.0" fill="#52575F" transform="matrix(1.00, 0.00, -0.00, -1.00, 76.0, 42.0)">t</text><text xml:space="preserve" font-family="YanoneKaffeesatz-Regular,Yanone Kaffeesatz" font-size="35.0" fill="#52575F" transform="matrix(1.00, 0.00, -0.00, -1.00, 85.4, 42.0)">e</text><text xml:space="preserve" font-family="YanoneKaffeesatz-Regular,Yanone Kaffeesatz" font-size="35.0" fill="#52575F" transform="matrix(1.00, 0.00, -0.00, -1.00, 98.0, 42.0)">r</text><text xml:space="preserve" font-family="YanoneKaffeesatz-Regular,Yanone Kaffeesatz" font-size="35.0" fill="#52575F" transform="matrix(1.00, 0.00, -0.00, -1.00, 107.2, 42.0)">n</text><text xml:space="preserve" font-family="YanoneKaffeesatz-Regular,Yanone Kaffeesatz" font-size="35.0" fill="#52575F" transform="matrix(1.00, 0.00, -0.00, -1.00, 120.6, 42.0)">e</text><text xml:space="preserve" font-family="YanoneKaffeesatz-Regular,Yanone Kaffeesatz" font-size="35.0" fill="#52575F" transform="matrix(1.00, 0.00, -0.00, -1.00, 133.1, 42.0)">t</text></g></g></g></svg>