<?xml version="1.0" encoding="UTF-8" standalone="no"?><svg xmlns="http://www.w3.org/2000/svg" xmlns:xlink="http://www.w3.org/1999/xlink" clip-rule="evenodd" stroke-miterlimit="10" viewBox="0 0 578 76"><desc>SVG generated by Keynote</desc><defs></defs><g transform="matrix(1.00, 0.00, -0.00, -1.00, 0.0, 76.0)"><text xml:space="preserve" font-family="YanoneKaffeesatz-Regular,Yanone Kaffeesatz" font-size="96.0" fill="#7A7A7A" transform="matrix(1.00, 0.00, -0.00, -1.00, -2.3, 3.1)">H</text><text xml:space="preserve" font-family="YanoneKaffeesatz-Regular,Yanone Kaffeesatz" font-size="96.0" fill="#7A7A7A" transform="matrix(1.00, 0.00, -0.00, -1.00, 37.0, 3.1)">o</text><text xml:space="preserve" font-family="YanoneKaffeesatz-Regular,Yanone Kaffeesatz" font-size="96.0" fill="#7A7A7A" transform="matrix(1.00, 0.00, -0.00, -1.00, 71.4, 3.1)">w</text><text xml:space="preserve" font-family="YanoneKaffeesatz-Regular,Yanone Kaffeesatz" font-size="96.0" fill="#7A7A7A" transform="matrix(1.00, 0.00, -0.00, -1.00, 123.2, 3.1)"> </text><text xml:space="preserve" font-family="YanoneKaffeesatz-Regular,Yanone Kaffeesatz" font-size="96.0" fill="#7A7A7A" transform="matrix(1.00, 0.00, -0.00, -1.00, 138.3, 3.1)">t</text><text xml:space="preserve" font-family="YanoneKaffeesatz-Regular,Yanone Kaffeesatz" font-size="96.0" fill="#7A7A7A" transform="matrix(1.00, 0.00, -0.00, -1.00, 166.2, 3.1)">h</text><text xml:space="preserve" font-family="YanoneKaffeesatz-Regular,Yanone Kaffeesatz" font-size="96.0" fill="#7A7A7A" transform="matrix(1.00, 0.00, -0.00, -1.00, 202.7, 3.1)">e</text><text xml:space="preserve" font-family="YanoneKaffeesatz-Regular,Yanone Kaffeesatz" font-size="96.0" fill="#7A7A7A" transform="matrix(1.00, 0.00, -0.00, -1.00, 237.4, 3.1)"> </text><text xml:space="preserve" font-family="YanoneKaffeesatz-Regular,Yanone Kaffeesatz" font-size="96.0" fill="#7A7A7A" transform="matrix(1.00, 0.00, -0.00, -1.00, 252.4, 3.1)">W</text><text xml:space="preserve" font-family="YanoneKaffeesatz-Regular,Yanone Kaffeesatz" font-size="96.0" fill="#7A7A7A" transform="matrix(1.00, 0.00, -0.00, -1.00, 311.6, 3.1)">e</text><text xml:space="preserve" font-family="YanoneKaffeesatz-Regular,Yanone Kaffeesatz" font-size="96.0" fill="#7A7A7A" transform="matrix(1.00, 0.00, -0.00, -1.00, 346.2, 3.1)">b</text><text xml:space="preserve" font-family="YanoneKaffeesatz-Regular,Yanone Kaffeesatz" font-size="96.0" fill="#7A7A7A" transform="matrix(1.00, 0.00, -0.00, -1.00, 383.0, 3.1)"> </text><text xml:space="preserve" font-family="YanoneKaffeesatz-Regular,Yanone Kaffeesatz" font-size="96.0" fill="#7A7A7A" transform="matrix(1.00, 0.00, -0.00, -1.00, 398.1, 3.1)">w</text><text xml:space="preserve" font-family="YanoneKaffeesatz-Regular,Yanone Kaffeesatz" font-size="96.0" fill="#7A7A7A" transform="matrix(1.00, 0.00, -0.00, -1.00, 448.0, 3.1)">o</text><text xml:space="preserve" font-family="YanoneKaffeesatz-Regular,Yanone Kaffeesatz" font-size="96.0" fill="#7A7A7A" transform="matrix(1.00, 0.00, -0.00, -1.00, 483.3, 3.1)">r</text><text xml:space="preserve" font-family="YanoneKaffeesatz-Regular,Yanone Kaffeesatz" font-size="96.0" fill="#7A7A7A" transform="matrix(1.00, 0.00, -0.00, -1.00, 508.6, 3.1)">k</text><text xml:space="preserve" font-family="YanoneKaffeesatz-Regular,Yanone Kaffeesatz" font-size="96.0" fill="#7A7A7A" transform="matrix(1.00, 0.00, -0.00, -1.00, 545.1, 3.1)">s</text></g></svg>