<?xml version="1.0" encoding="UTF-8" standalone="no"?><svg xmlns="http://www.w3.org/2000/svg" xmlns:xlink="http://www.w3.org/1999/xlink" clip-rule="evenodd" stroke-miterlimit="10" viewBox="0 0 1024 768"><desc>SVG generated by Keynote</desc><defs></defs><g transform="matrix(1.00, 0.00, -0.00, -1.00, 0.0, 768.0)"><path d="M 0.0 768.0 L 1024.0 768.0 L 1024.0 0.0 L 0.0 0.0 Z M 0.0 768.0 " fill="#F1F2EC"></path><text xml:space="preserve" font-family="YanoneKaffeesatz-Regular,Yanone Kaffeesatz" font-size="144.0" fill="#787878" transform="matrix(1.00, 0.00, -0.00, -1.00, 263.1, 415.1)">I</text><text xml:space="preserve" font-family="YanoneKaffeesatz-Regular,Yanone Kaffeesatz" font-size="144.0" fill="#787878" transform="matrix(1.00, 0.00, -0.00, -1.00, 287.3, 415.1)">n</text><text xml:space="preserve" font-family="YanoneKaffeesatz-Regular,Yanone Kaffeesatz" font-size="144.0" fill="#787878" transform="matrix(1.00, 0.00, -0.00, -1.00, 342.3, 415.1)">t</text><text xml:space="preserve" font-family="YanoneKaffeesatz-Regular,Yanone Kaffeesatz" font-size="144.0" fill="#787878" transform="matrix(1.00, 0.00, -0.00, -1.00, 384.2, 415.1)">r</text><text xml:space="preserve" font-family="YanoneKaffeesatz-Regular,Yanone Kaffeesatz" font-size="144.0" fill="#787878" transform="matrix(1.00, 0.00, -0.00, -1.00, 419.2, 415.1)">o</text><text xml:space="preserve" font-family="YanoneKaffeesatz-Regular,Yanone Kaffeesatz" font-size="144.0" fill="#787878" transform="matrix(1.00, 0.00, -0.00, -1.00, 472.2, 415.1)">d</text><text xml:space="preserve" font-family="YanoneKaffeesatz-Regular,Yanone Kaffeesatz" font-size="144.0" fill="#787878" transform="matrix(1.00, 0.00, -0.00, -1.00, 527.7, 415.1)">u</text><text xml:space="preserve" font-family="YanoneKaffeesatz-Regular,Yanone Kaffeesatz" font-size="144.0" fill="#787878" transform="matrix(1.00, 0.00, -0.00, -1.00, 583.9, 415.1)">c</text><text xml:space="preserve" font-family="YanoneKaffeesatz-Regular,Yanone Kaffeesatz" font-size="144.0" fill="#787878" transform="matrix(1.00, 0.00, -0.00, -1.00, 629.8, 415.1)">t</text><text xml:space="preserve" font-family="YanoneKaffeesatz-Regular,Yanone Kaffeesatz" font-size="144.0" fill="#787878" transform="matrix(1.00, 0.00, -0.00, -1.00, 671.7, 415.1)">i</text><text xml:space="preserve" font-family="YanoneKaffeesatz-Regular,Yanone Kaffeesatz" font-size="144.0" fill="#787878" transform="matrix(1.00, 0.00, -0.00, -1.00, 696.9, 415.1)">o</text><text xml:space="preserve" font-family="YanoneKaffeesatz-Regular,Yanone Kaffeesatz" font-size="144.0" fill="#787878" transform="matrix(1.00, 0.00, -0.00, -1.00, 749.9, 415.1)">n</text><text xml:space="preserve" font-family="YanoneKaffeesatz-Regular,Yanone Kaffeesatz" font-size="144.0" fill="#787878" transform="matrix(1.00, 0.00, -0.00, -1.00, 804.9, 415.1)"> </text><text xml:space="preserve" font-family="YanoneKaffeesatz-Regular,Yanone Kaffeesatz" font-size="144.0" fill="#787878" transform="matrix(1.00, 0.00, -0.00, -1.00, 827.6, 415.1)">t</text><text xml:space="preserve" font-family="YanoneKaffeesatz-Regular,Yanone Kaffeesatz" font-size="144.0" fill="#787878" transform="matrix(1.00, 0.00, -0.00, -1.00, 867.0, 415.1)">o</text><text xml:space="preserve" font-family="YanoneKaffeesatz-Regular,Yanone Kaffeesatz" font-size="144.0" fill="#787878" transform="matrix(1.00, 0.00, -0.00, -1.00, 920.0, 415.1)"> </text><text xml:space="preserve" font-family="YanoneKaffeesatz-Regular,Yanone Kaffeesatz" font-size="144.0" fill="#787878" transform="matrix(1.00, 0.00, -0.00, -1.00, 470.7, 244.1)">J</text><text xml:space="preserve" font-family="YanoneKaffeesatz-Regular,Yanone Kaffeesatz" font-size="144.0" fill="#787878" transform="matrix(1.00, 0.00, -0.00, -1.00, 514.8, 244.1)">a</text><text xml:space="preserve" font-family="YanoneKaffeesatz-Regular,Yanone Kaffeesatz" font-size="144.0" fill="#787878" transform="matrix(1.00, 0.00, -0.00, -1.00, 565.8, 244.1)">v</text><text xml:space="preserve" font-family="YanoneKaffeesatz-Regular,Yanone Kaffeesatz" font-size="144.0" fill="#787878" transform="matrix(1.00, 0.00, -0.00, -1.00, 613.7, 244.1)">a</text><text xml:space="preserve" font-family="YanoneKaffeesatz-Regular,Yanone Kaffeesatz" font-size="144.0" fill="#787878" transform="matrix(1.00, 0.00, -0.00, -1.00, 664.7, 244.1)">S</text><text xml:space="preserve" font-family="YanoneKaffeesatz-Regular,Yanone Kaffeesatz" font-size="144.0" fill="#787878" transform="matrix(1.00, 0.00, -0.00, -1.00, 716.2, 244.1)">c</text><text xml:space="preserve" font-family="YanoneKaffeesatz-Regular,Yanone Kaffeesatz" font-size="144.0" fill="#787878" transform="matrix(1.00, 0.00, -0.00, -1.00, 761.3, 244.1)">r</text><text xml:space="preserve" font-family="YanoneKaffeesatz-Regular,Yanone Kaffeesatz" font-size="144.0" fill="#787878" transform="matrix(1.00, 0.00, -0.00, -1.00, 799.2, 244.1)">i</text><text xml:space="preserve" font-family="YanoneKaffeesatz-Regular,Yanone Kaffeesatz" font-size="144.0" fill="#787878" transform="matrix(1.00, 0.00, -0.00, -1.00, 824.4, 244.1)">p</text><text xml:space="preserve" font-family="YanoneKaffeesatz-Regular,Yanone Kaffeesatz" font-size="144.0" fill="#787878" transform="matrix(1.00, 0.00, -0.00, -1.00, 878.1, 244.1)">t</text></g></svg>